<?xml version="1.0" encoding="iso-8859-1"?>
<!-- Uploaded to: SVG Repo, www.svgrepo.com, Generator: SVG Repo Mixer Tools -->
<svg fill="#000000" height="800px" width="800px" version="1.1" id="Layer_1" xmlns="http://www.w3.org/2000/svg" xmlns:xlink="http://www.w3.org/1999/xlink" 
	 viewBox="0 0 512 512" xml:space="preserve">
<g>
	<g>
		<path d="M426.403,173.642c-2.738-3.08-6.663-4.841-10.784-4.841H96.379c-4.121,0-8.046,1.761-10.784,4.841
			c-2.738,3.079-4.031,7.181-3.552,11.275l10.618,90.606c0.001,0.014,0.001,0.03,0.003,0.046l7.797,66.513l18.418,157.164
			c0.852,7.272,7.014,12.754,14.336,12.754h245.57c7.323,0,13.485-5.482,14.336-12.754l18.418-157.164l7.797-66.513
			c0.001-0.016,0.001-0.03,0.003-0.046l10.618-90.606C430.434,180.823,429.142,176.721,426.403,173.642z M129.33,340.4
			l-6.103-52.079h51.481c-5.422,8.06-8.814,17.678-9.372,28.114c-0.937,17.558,5.795,29.97,10.941,37.78
			c6.931,10.518,23.681,26.08,37.046,37.138c0.468,0.388,0.915,0.751,1.373,1.126h-79.26L129.33,340.4z M194.166,317.975
			c0.727-13.609,11.903-24.68,24.908-24.68c11.181,0,21.796,12.037,24.902,16.617c2.624,3.954,7.042,6.341,11.787,6.423
			c4.766,0.13,9.247-2.193,12.009-6.051c3.157-4.408,14.553-16.989,25.149-16.989c13.008,0,24.182,11.071,24.911,24.681
			c0.384,7.157-1.419,13.057-6.221,20.364c-8.523,12.961-43.252,42.252-55.496,48.479c-12.207-6.304-47.501-36.001-55.731-48.489
			C195.585,331.046,193.784,325.148,194.166,317.975z M365.942,483.131H146.056l-7.24-61.783h234.366L365.942,483.131z
			 M382.668,340.4l-6.104,52.079h-79.07c0.442-0.362,0.872-0.714,1.324-1.088c13.264-11.012,29.925-26.562,36.916-37.191
			c5.142-7.82,11.868-20.246,10.928-37.766c-0.559-10.435-3.951-20.052-9.372-28.112h51.483L382.668,340.4z M392.154,259.454
			H119.845l-7.24-61.783h286.79L392.154,259.454z"/>
	</g>
</g>
<g>
	<g>
		<path d="M260.101,36.78L165.003,0.931c-7.458-2.81-15.787,0.956-18.599,8.415c-2.81,7.46,0.957,15.787,8.417,18.599l85.754,32.326
			v37.554c0,7.971,6.462,14.434,14.434,14.434c7.972,0,14.434-6.464,14.434-14.434V50.286
			C269.444,44.279,265.723,38.899,260.101,36.78z"/>
	</g>
</g>
<g>
	<g>
		<path d="M269.164,139.906c-0.188-0.924-0.462-1.833-0.823-2.699c-0.361-0.88-0.808-1.718-1.328-2.497
			c-0.52-0.794-1.126-1.53-1.79-2.194c-0.664-0.665-1.415-1.272-2.194-1.79c-0.794-0.52-1.631-0.967-2.497-1.328
			c-0.88-0.361-1.775-0.635-2.699-0.823c-1.862-0.375-3.782-0.375-5.644,0c-0.924,0.188-1.833,0.462-2.699,0.823
			c-0.866,0.361-1.718,0.808-2.497,1.328c-0.794,0.518-1.53,1.124-2.194,1.79c-0.664,0.664-1.27,1.4-1.79,2.194
			c-0.52,0.779-0.967,1.617-1.328,2.497c-0.361,0.866-0.635,1.774-0.823,2.698c-0.188,0.925-0.289,1.878-0.289,2.815
			c0,0.938,0.101,1.892,0.289,2.829c0.188,0.909,0.462,1.819,0.823,2.699c0.361,0.867,0.808,1.703,1.328,2.483
			c0.52,0.795,1.126,1.531,1.79,2.195c2.685,2.685,6.409,4.229,10.205,4.229c0.938,0,1.891-0.087,2.829-0.273
			c0.924-0.188,1.819-0.462,2.699-0.823c0.866-0.361,1.703-0.808,2.497-1.328c0.779-0.534,1.53-1.14,2.194-1.804
			s1.27-1.4,1.79-2.195c0.52-0.779,0.967-1.615,1.328-2.483c0.361-0.88,0.635-1.79,0.823-2.699c0.188-0.937,0.289-1.891,0.289-2.829
			C269.453,141.784,269.352,140.83,269.164,139.906z"/>
	</g>
</g>
</svg>