<svg id="Extenso_2" data-name="Extenso 2" xmlns="http://www.w3.org/2000/svg" viewBox="0 0 842.17 430.16"><defs><style>.cls-1,.cls-3,.cls-5,.cls-6,.cls-7{fill-rule:evenodd;}.cls-2,.cls-3{fill:#fff;}.cls-4{fill:snow;}.cls-5,.cls-9{fill:#c60006;}.cls-6{fill:#900002;}.cls-7{fill:red;}.cls-8{fill:#414042;}</style></defs><g id="petcomputação"><path d="M140.69,154.28a7.09,7.09,0,0,1-1.89,5.31,7.29,7.29,0,0,1-5.33,1.85h-3v9.86h-1.33V147.42h4.68Q140.69,147.42,140.69,154.28ZM130.51,160h2.63q3.23,0,4.67-1.33a5.65,5.65,0,0,0,1.44-4.32,5.51,5.51,0,0,0-1.36-4.09,5.81,5.81,0,0,0-4.21-1.33h-3.17Z" transform="translate(0 -10.22)"/><path d="M154.22,171.3H143.77V147.42h10.45V149h-9.11v9h8.6v1.54h-8.6v10.24h9.11Z" transform="translate(0 -10.22)"/><path d="M162.46,171.3h-1.34V149H154.9v-1.57h13.78V149h-6.22Z" transform="translate(0 -10.22)"/><path d="M179.58,151.29a4.51,4.51,0,0,0-4,2.15,10.85,10.85,0,0,0-1.41,6q0,8,5.4,8a15.56,15.56,0,0,0,5.49-1.25v4.24a13.91,13.91,0,0,1-5.92,1.23,8.59,8.59,0,0,1-7.18-3.16c-1.66-2.11-2.48-5.13-2.48-9.07a16.12,16.12,0,0,1,1.22-6.53,9.47,9.47,0,0,1,3.51-4.3,9.61,9.61,0,0,1,5.36-1.49,13.34,13.34,0,0,1,6.3,1.68l-1.47,4.12a21.81,21.81,0,0,0-2.43-1.11A6.58,6.58,0,0,0,179.58,151.29Z" transform="translate(0 -10.22)"/><path d="M208,159.33q0,5.92-2.64,9.11a10.64,10.64,0,0,1-15.19,0q-2.65-3.18-2.65-9.14c0-4,.89-7,2.66-9.11s4.31-3.14,7.61-3.14,5.84,1,7.59,3.17S208,155.37,208,159.33Zm-15.7,0a10.84,10.84,0,0,0,1.37,6,4.61,4.61,0,0,0,4.09,2q5.46,0,5.46-8t-5.43-8.07a4.64,4.64,0,0,0-4.1,2A10.72,10.72,0,0,0,192.26,159.33Z" transform="translate(0 -10.22)"/><path d="M220.32,171.3l-5.18-18.73H215q.28,5.72.28,7.63v11.1h-4.07V147.42h6.2l5.1,18.26h.08l5.4-18.26h6.21V171.3H230V160c0-.53,0-1.15,0-1.85s.08-2.54.2-5.55h-.13l-5.55,18.7Z" transform="translate(0 -10.22)"/><path d="M253.28,154.87a7.7,7.7,0,0,1-2.17,5.9,8.65,8.65,0,0,1-6.17,2h-2v8.49h-4.56V147.42h6.87a8.57,8.57,0,0,1,6,1.87A7.24,7.24,0,0,1,253.28,154.87ZM243,158.66h1.5a4.65,4.65,0,0,0,3.15-.92,3.39,3.39,0,0,0,1.05-2.69,3.5,3.5,0,0,0-.88-2.63,3.84,3.84,0,0,0-2.74-.85H243Z" transform="translate(0 -10.22)"/><path d="M273.65,147.42v15.45a9.69,9.69,0,0,1-1.07,4.64,7.27,7.27,0,0,1-3.08,3.06,10.05,10.05,0,0,1-4.77,1.06,8.59,8.59,0,0,1-6.44-2.36,8.87,8.87,0,0,1-2.3-6.46V147.42h4.55V162a6.59,6.59,0,0,0,1,4.05,3.94,3.94,0,0,0,3.31,1.29,3.83,3.83,0,0,0,3.24-1.3,6.57,6.57,0,0,0,1-4.07V147.42Z" transform="translate(0 -10.22)"/><path d="M286,171.3h-4.56V151.64h-5.84v-4.22h16.24v4.22H286Z" transform="translate(0 -10.22)"/><path d="M306.35,171.3l-1.56-5.68H297l-1.56,5.68h-4.91l7.59-24h5.58l7.62,24Zm-2.64-9.93q-2.18-7.73-2.44-8.74c-.18-.67-.31-1.21-.39-1.6q-.48,2.1-2.78,10.34Z" transform="translate(0 -10.22)"/><path d="M320.9,151.29a4.5,4.5,0,0,0-4,2.15,10.76,10.76,0,0,0-1.42,6q0,8,5.4,8a15.56,15.56,0,0,0,5.49-1.25v4.24a13.83,13.83,0,0,1-5.91,1.23,8.59,8.59,0,0,1-7.18-3.16q-2.49-3.16-2.49-9.07a16.29,16.29,0,0,1,1.22-6.53,9.18,9.18,0,0,1,8.87-5.79,13.34,13.34,0,0,1,6.3,1.68l-1.47,4.12a20.27,20.27,0,0,0-2.43-1.11A6.5,6.5,0,0,0,320.9,151.29Zm2.27,24.1a3.74,3.74,0,0,1-1.11,3,5.29,5.29,0,0,1-3.44.93,6.76,6.76,0,0,1-2.14-.34v-2.75a10.13,10.13,0,0,0,1.06.23,6.1,6.1,0,0,0,1,.11c.71,0,1.06-.33,1.06-1,0-.9-.82-1.49-2.44-1.76l1.14-2.52h2.84l-.39,1a3.77,3.77,0,0,1,1.73,1.22A3,3,0,0,1,323.17,175.39Z" transform="translate(0 -10.22)"/><path d="M342.93,171.3l-1.56-5.68h-7.84L332,171.3h-4.92l7.6-24h5.57l7.62,24ZM335,143.8a1.21,1.21,0,0,0-.87.43,2.71,2.71,0,0,0-.61,1.31h-2.19a6.56,6.56,0,0,1,1.21-3.7,3.35,3.35,0,0,1,2.79-1.34,2.75,2.75,0,0,1,1.18.27c.39.18.77.37,1.15.59s.75.4,1.11.58a2.51,2.51,0,0,0,1.07.26,1.25,1.25,0,0,0,.88-.43,2.63,2.63,0,0,0,.61-1.31h2.19a6.5,6.5,0,0,1-1.22,3.71,3.38,3.38,0,0,1-2.78,1.34,2.75,2.75,0,0,1-1.18-.27c-.39-.18-.77-.37-1.15-.59s-.75-.4-1.11-.58A2.4,2.4,0,0,0,335,143.8Zm5.24,17.57q-2.16-7.73-2.43-8.74c-.18-.67-.31-1.21-.39-1.6q-.49,2.1-2.78,10.34Z" transform="translate(0 -10.22)"/><path d="M368.87,159.33q0,5.92-2.65,9.11t-7.59,3.19c-3.29,0-5.83-1.06-7.59-3.19s-2.65-5.17-2.65-9.14.89-7,2.66-9.11,4.3-3.14,7.61-3.14,5.83,1,7.59,3.17S368.87,155.37,368.87,159.33Zm-15.7,0a10.84,10.84,0,0,0,1.37,6,4.61,4.61,0,0,0,4.09,2q5.46,0,5.46-8t-5.43-8.07a4.64,4.64,0,0,0-4.1,2A10.72,10.72,0,0,0,353.17,159.33Z" transform="translate(0 -10.22)"/><path d="M130.53,182.3v5.51a2.29,2.29,0,0,0,.45,1.55,1.79,1.79,0,0,0,1.41.52,2.25,2.25,0,0,0,1.85-.73,3.84,3.84,0,0,0,.59-2.39V182.3h1.23v8.5h-1l-.17-1.14h-.07a2.47,2.47,0,0,1-1,1,3.44,3.44,0,0,1-1.53.33,3,3,0,0,1-2.21-.73,3.24,3.24,0,0,1-.73-2.36V182.3Z" transform="translate(0 -10.22)"/><path d="M143.44,190.8v-5.5a2.29,2.29,0,0,0-.45-1.55,1.8,1.8,0,0,0-1.41-.52,2.27,2.27,0,0,0-1.87.73,3.79,3.79,0,0,0-.59,2.38v4.46H137.9v-8.5h1l.19,1.16h.06a2.55,2.55,0,0,1,1.06-1,3.29,3.29,0,0,1,1.51-.35,3,3,0,0,1,2.2.74,3.21,3.21,0,0,1,.74,2.37v5.55Z" transform="translate(0 -10.22)"/><path d="M146.32,180a.89.89,0,0,1,.21-.65.71.71,0,0,1,.51-.2.69.69,0,0,1,.51.21.87.87,0,0,1,.22.64.89.89,0,0,1-.22.65.69.69,0,0,1-.51.21.68.68,0,0,1-.51-.21A.89.89,0,0,1,146.32,180Zm1.33,10.81h-1.23v-8.5h1.23Z" transform="translate(0 -10.22)"/><path d="M151.26,190.8l-3.07-8.5h1.32l1.74,5c.39,1.18.62,1.94.69,2.29H152c.06-.27.23-.84.51-1.7s.94-2.74,1.94-5.63h1.32l-3.08,8.5Z" transform="translate(0 -10.22)"/><path d="M159.73,191a3.63,3.63,0,0,1-2.83-1.14,4.61,4.61,0,0,1-1-3.19,5.13,5.13,0,0,1,1-3.27,3.13,3.13,0,0,1,2.59-1.21,3,3,0,0,1,2.41,1.05,4.17,4.17,0,0,1,.88,2.78v.81h-5.57a3.4,3.4,0,0,0,.72,2.27,2.42,2.42,0,0,0,1.92.78,6.17,6.17,0,0,0,2.59-.58v1.15a6.73,6.73,0,0,1-1.23.43A7.09,7.09,0,0,1,159.73,191Zm-.33-7.73a2,2,0,0,0-1.56.67,3.2,3.2,0,0,0-.68,1.84h4.23a2.88,2.88,0,0,0-.52-1.86A1.74,1.74,0,0,0,159.4,183.22Z" transform="translate(0 -10.22)"/><path d="M167.73,182.14a4.78,4.78,0,0,1,1,.09l-.17,1.2a3.91,3.91,0,0,0-.89-.12,2.13,2.13,0,0,0-1.68.84,3.12,3.12,0,0,0-.7,2.09v4.56H164v-8.5h1l.14,1.57h.06a3.73,3.73,0,0,1,1.08-1.28A2.38,2.38,0,0,1,167.73,182.14Z" transform="translate(0 -10.22)"/><path d="M174.67,188.48a2.17,2.17,0,0,1-.84,1.83,3.81,3.81,0,0,1-2.36.64,4.91,4.91,0,0,1-2.51-.53v-1.2a5.7,5.7,0,0,0,1.25.49,4.89,4.89,0,0,0,1.29.18,2.81,2.81,0,0,0,1.47-.32,1.07,1.07,0,0,0,.52-1,1.09,1.09,0,0,0-.41-.85,6,6,0,0,0-1.6-.84,8,8,0,0,1-1.6-.77,2.18,2.18,0,0,1-.71-.75,2,2,0,0,1-.23-1,1.93,1.93,0,0,1,.8-1.64,3.62,3.62,0,0,1,2.21-.6,6.21,6.21,0,0,1,2.55.56l-.43,1.05a5.49,5.49,0,0,0-2.21-.53,2.33,2.33,0,0,0-1.31.29.89.89,0,0,0-.45.79,1,1,0,0,0,.17.58,1.77,1.77,0,0,0,.53.46,14,14,0,0,0,1.42.63,5.08,5.08,0,0,1,1.95,1.11A2,2,0,0,1,174.67,188.48Z" transform="translate(0 -10.22)"/><path d="M175.81,180a.94.94,0,0,1,.2-.65.73.73,0,0,1,.52-.2.69.69,0,0,1,.51.21.87.87,0,0,1,.21.64.89.89,0,0,1-.21.65.74.74,0,0,1-1,0A.94.94,0,0,1,175.81,180Zm1.33,10.81h-1.23v-8.5h1.23Z" transform="translate(0 -10.22)"/><path d="M184.49,189.66h-.07a2.84,2.84,0,0,1-2.54,1.29,3,3,0,0,1-2.47-1.14,5.18,5.18,0,0,1-.88-3.24,5.32,5.32,0,0,1,.88-3.27,3,3,0,0,1,2.47-1.16,2.87,2.87,0,0,1,2.52,1.26h.1l-.05-.62,0-.59v-3.46h1.23V190.8h-1Zm-2.46.22a2.16,2.16,0,0,0,1.82-.72,3.75,3.75,0,0,0,.57-2.32v-.27a4.47,4.47,0,0,0-.57-2.58,2.13,2.13,0,0,0-1.83-.77,1.84,1.84,0,0,0-1.65.88,4.59,4.59,0,0,0-.57,2.49,4.39,4.39,0,0,0,.57,2.46A1.89,1.89,0,0,0,182,189.88Z" transform="translate(0 -10.22)"/><path d="M192.46,190.8l-.24-1.21h-.06a3.38,3.38,0,0,1-1.21,1.08,3.49,3.49,0,0,1-1.5.28,2.58,2.58,0,0,1-1.88-.65,2.41,2.41,0,0,1-.69-1.85q0-2.58,3.92-2.7l1.38-.05v-.53a2.22,2.22,0,0,0-.41-1.47,1.64,1.64,0,0,0-1.31-.48,5.17,5.17,0,0,0-2.29.65l-.38-1a6.09,6.09,0,0,1,1.31-.53,5.41,5.41,0,0,1,1.43-.19,3,3,0,0,1,2.14.67,2.88,2.88,0,0,1,.7,2.16v5.81Zm-2.76-.91a2.39,2.39,0,0,0,1.79-.66,2.49,2.49,0,0,0,.66-1.85v-.76l-1.23,0a4.36,4.36,0,0,0-2.11.48,1.45,1.45,0,0,0-.64,1.31,1.37,1.37,0,0,0,.4,1.07A1.63,1.63,0,0,0,189.7,189.89Z" transform="translate(0 -10.22)"/><path d="M200.65,189.66h-.07A2.83,2.83,0,0,1,198,191a3,3,0,0,1-2.47-1.14,5.18,5.18,0,0,1-.88-3.24,5.32,5.32,0,0,1,.89-3.27,3.18,3.18,0,0,1,5,.1h.09l0-.62,0-.59v-3.46h1.23V190.8h-1Zm-2.45.22a2.19,2.19,0,0,0,1.82-.72,3.82,3.82,0,0,0,.56-2.32v-.27A4.47,4.47,0,0,0,200,184a2.13,2.13,0,0,0-1.83-.77,1.84,1.84,0,0,0-1.65.88,4.59,4.59,0,0,0-.57,2.49,4.39,4.39,0,0,0,.57,2.46A1.9,1.9,0,0,0,198.2,189.88Z" transform="translate(0 -10.22)"/><path d="M207.07,191a3.63,3.63,0,0,1-2.83-1.14,4.61,4.61,0,0,1-1-3.19,5.13,5.13,0,0,1,1-3.27,3.15,3.15,0,0,1,2.59-1.21,3,3,0,0,1,2.41,1.05A4.17,4.17,0,0,1,210,186v.81h-5.57a3.4,3.4,0,0,0,.72,2.27,2.42,2.42,0,0,0,1.92.78,6.2,6.2,0,0,0,2.59-.58v1.15a6.73,6.73,0,0,1-1.23.43A7.09,7.09,0,0,1,207.07,191Zm-.33-7.73a2,2,0,0,0-1.56.67,3.2,3.2,0,0,0-.68,1.84h4.23a2.88,2.88,0,0,0-.52-1.86A1.74,1.74,0,0,0,206.74,183.22Z" transform="translate(0 -10.22)"/><path d="M218.2,183.3h-2.06v7.5h-1.23v-7.5h-1.45v-.59l1.45-.46v-.47c0-2.09.87-3.14,2.61-3.14a5.08,5.08,0,0,1,1.5.27l-.31,1a4,4,0,0,0-1.21-.24,1.17,1.17,0,0,0-1,.49,2.81,2.81,0,0,0-.33,1.55v.56h2.06Z" transform="translate(0 -10.22)"/><path d="M222.34,191a3.66,3.66,0,0,1-2.84-1.14,4.6,4.6,0,0,1-1-3.19,5.13,5.13,0,0,1,1-3.27,3.12,3.12,0,0,1,2.59-1.21,3,3,0,0,1,2.4,1.05,4.18,4.18,0,0,1,.89,2.78v.81h-5.57a3.4,3.4,0,0,0,.72,2.27,2.4,2.4,0,0,0,1.92.78,6.13,6.13,0,0,0,2.58-.58v1.15a6.25,6.25,0,0,1-1.23.43A6.91,6.91,0,0,1,222.34,191Zm-.34-7.73a1.94,1.94,0,0,0-1.55.67,3.13,3.13,0,0,0-.68,1.84H224a2.94,2.94,0,0,0-.52-1.86A1.77,1.77,0,0,0,222,183.22Z" transform="translate(0 -10.22)"/><path d="M232.15,189.66h-.07a2.82,2.82,0,0,1-2.53,1.29,2.93,2.93,0,0,1-2.47-1.14,5.18,5.18,0,0,1-.89-3.24,5.32,5.32,0,0,1,.89-3.27,2.93,2.93,0,0,1,2.47-1.16,2.9,2.9,0,0,1,2.52,1.26h.1l-.06-.62,0-.59v-3.46h1.23V190.8h-1Zm-2.45.22a2.17,2.17,0,0,0,1.82-.72,3.75,3.75,0,0,0,.56-2.32v-.27a4.47,4.47,0,0,0-.57-2.58,2.13,2.13,0,0,0-1.83-.77,1.84,1.84,0,0,0-1.64.88,4.5,4.5,0,0,0-.58,2.49,4.39,4.39,0,0,0,.57,2.46A1.91,1.91,0,0,0,229.7,189.88Z" transform="translate(0 -10.22)"/><path d="M238.57,191a3.64,3.64,0,0,1-2.83-1.14,4.61,4.61,0,0,1-1-3.19,5.08,5.08,0,0,1,1-3.27,3.11,3.11,0,0,1,2.58-1.21,3,3,0,0,1,2.41,1.05,4.18,4.18,0,0,1,.89,2.78v.81H236a3.51,3.51,0,0,0,.72,2.27,2.44,2.44,0,0,0,1.93.78,6.13,6.13,0,0,0,2.58-.58v1.15a6.25,6.25,0,0,1-1.23.43A7,7,0,0,1,238.57,191Zm-.33-7.73a2,2,0,0,0-1.56.67,3.2,3.2,0,0,0-.68,1.84h4.23a2.94,2.94,0,0,0-.51-1.86A1.77,1.77,0,0,0,238.24,183.22Z" transform="translate(0 -10.22)"/><path d="M246.57,182.14a4.78,4.78,0,0,1,1,.09l-.17,1.2a3.91,3.91,0,0,0-.89-.12,2.13,2.13,0,0,0-1.68.84,3.17,3.17,0,0,0-.69,2.09v4.56h-1.23v-8.5h1l.14,1.57h.06a3.65,3.65,0,0,1,1.09-1.28A2.33,2.33,0,0,1,246.57,182.14Z" transform="translate(0 -10.22)"/><path d="M253.27,190.8l-.24-1.21H253a2.93,2.93,0,0,1-2.71,1.36,2.62,2.62,0,0,1-1.89-.65,2.45,2.45,0,0,1-.68-1.85q0-2.58,3.92-2.7l1.37-.05v-.53a2.23,2.23,0,0,0-.4-1.47,1.65,1.65,0,0,0-1.32-.48,5.17,5.17,0,0,0-2.28.65l-.38-1a5.89,5.89,0,0,1,1.31-.53,5.35,5.35,0,0,1,1.43-.19,3,3,0,0,1,2.14.67,2.88,2.88,0,0,1,.7,2.16v5.81Zm-2.77-.91a2.4,2.4,0,0,0,1.8-.66,2.49,2.49,0,0,0,.66-1.85v-.76l-1.23,0a4.36,4.36,0,0,0-2.11.48,1.45,1.45,0,0,0-.64,1.31,1.37,1.37,0,0,0,.4,1.07A1.62,1.62,0,0,0,250.5,189.89Z" transform="translate(0 -10.22)"/><path d="M257.17,190.8H256V178.73h1.22Z" transform="translate(0 -10.22)"/><path d="M267.7,189.66h-.07a2.84,2.84,0,0,1-2.54,1.29,3,3,0,0,1-2.47-1.14,5.18,5.18,0,0,1-.88-3.24,5.25,5.25,0,0,1,.89-3.27,3.18,3.18,0,0,1,5,.1h.09l0-.62,0-.59v-3.46h1.23V190.8h-1Zm-2.45.22a2.19,2.19,0,0,0,1.82-.72,3.82,3.82,0,0,0,.56-2.32v-.27a4.47,4.47,0,0,0-.57-2.58,2.13,2.13,0,0,0-1.83-.77,1.84,1.84,0,0,0-1.65.88,4.59,4.59,0,0,0-.57,2.49,4.39,4.39,0,0,0,.57,2.46A1.9,1.9,0,0,0,265.25,189.88Z" transform="translate(0 -10.22)"/><path d="M277.68,186.54a4.87,4.87,0,0,1-1,3.25,3.82,3.82,0,0,1-4.68.63,3.41,3.41,0,0,1-1.3-1.54,5.52,5.52,0,0,1-.46-2.34,4.83,4.83,0,0,1,1-3.24,3.42,3.42,0,0,1,2.74-1.16,3.34,3.34,0,0,1,2.7,1.19A4.8,4.8,0,0,1,277.68,186.54Zm-6.16,0a4.13,4.13,0,0,0,.62,2.48,2.11,2.11,0,0,0,1.82.86,2.15,2.15,0,0,0,1.83-.85,4.16,4.16,0,0,0,.62-2.49,4.06,4.06,0,0,0-.62-2.46,2.41,2.41,0,0,0-3.66,0A4.16,4.16,0,0,0,271.52,186.54Z" transform="translate(0 -10.22)"/><path d="M285.48,191a3.36,3.36,0,0,1-2.72-1.13,4.85,4.85,0,0,1-1-3.22,5,5,0,0,1,1-3.3,3.48,3.48,0,0,1,2.79-1.16,5.18,5.18,0,0,1,1.17.13,3.67,3.67,0,0,1,.91.31l-.37,1.1a5.46,5.46,0,0,0-.89-.29,4,4,0,0,0-.85-.11c-1.64,0-2.46,1.1-2.46,3.31a4.09,4.09,0,0,0,.6,2.4,2,2,0,0,0,1.78.84,5.16,5.16,0,0,0,2.08-.46v1.14A4.23,4.23,0,0,1,285.48,191Z" transform="translate(0 -10.22)"/><path d="M292.11,191a3.63,3.63,0,0,1-2.83-1.14,4.56,4.56,0,0,1-1-3.19,5.13,5.13,0,0,1,1-3.27,3.13,3.13,0,0,1,2.59-1.21,3,3,0,0,1,2.41,1.05,4.17,4.17,0,0,1,.88,2.78v.81h-5.57a3.4,3.4,0,0,0,.72,2.27,2.42,2.42,0,0,0,1.92.78,6.2,6.2,0,0,0,2.59-.58v1.15a6.73,6.73,0,0,1-1.23.43A7.09,7.09,0,0,1,292.11,191Zm-.33-7.73a2,2,0,0,0-1.56.67,3.2,3.2,0,0,0-.68,1.84h4.23a2.88,2.88,0,0,0-.52-1.86A1.74,1.74,0,0,0,291.78,183.22Z" transform="translate(0 -10.22)"/><path d="M301.39,190.8l-.24-1.21h-.06a2.93,2.93,0,0,1-2.71,1.36,2.62,2.62,0,0,1-1.89-.65,2.45,2.45,0,0,1-.68-1.85q0-2.58,3.92-2.7l1.37-.05v-.53a2.23,2.23,0,0,0-.4-1.47,1.65,1.65,0,0,0-1.32-.48,5.17,5.17,0,0,0-2.28.65l-.38-1a5.89,5.89,0,0,1,1.31-.53,5.41,5.41,0,0,1,1.43-.19,3,3,0,0,1,2.14.67,2.88,2.88,0,0,1,.7,2.16v5.81Zm-2.77-.91a2.4,2.4,0,0,0,1.8-.66,2.49,2.49,0,0,0,.66-1.85v-.76l-1.23,0a4.36,4.36,0,0,0-2.11.48,1.45,1.45,0,0,0-.64,1.31,1.37,1.37,0,0,0,.4,1.07A1.62,1.62,0,0,0,298.62,189.89Z" transform="translate(0 -10.22)"/><path d="M307.76,182.14a4.78,4.78,0,0,1,1,.09l-.17,1.2a3.91,3.91,0,0,0-.89-.12,2.13,2.13,0,0,0-1.68.84,3.17,3.17,0,0,0-.69,2.09v4.56h-1.23v-8.5h1l.14,1.57h.06a3.65,3.65,0,0,1,1.09-1.28A2.33,2.33,0,0,1,307.76,182.14Z" transform="translate(0 -10.22)"/><path d="M314.46,190.8l-.24-1.21h-.06a2.93,2.93,0,0,1-2.71,1.36,2.62,2.62,0,0,1-1.89-.65,2.45,2.45,0,0,1-.68-1.85q0-2.58,3.92-2.7l1.37-.05v-.53a2.17,2.17,0,0,0-.41-1.47,1.63,1.63,0,0,0-1.31-.48,5.17,5.17,0,0,0-2.28.65l-.38-1a5.89,5.89,0,0,1,1.31-.53,5.35,5.35,0,0,1,1.43-.19,3,3,0,0,1,2.14.67,2.88,2.88,0,0,1,.7,2.16v5.81Zm-2.77-.91a2.4,2.4,0,0,0,1.8-.66,2.49,2.49,0,0,0,.65-1.85v-.76l-1.22,0a4.33,4.33,0,0,0-2.11.48,1.45,1.45,0,0,0-.64,1.31,1.37,1.37,0,0,0,.4,1.07A1.62,1.62,0,0,0,311.69,189.89Zm-.28-8.91c.23-.32.49-.71.76-1.17s.49-.85.65-1.18h1.49v.16a12.19,12.19,0,0,1-1,1.24,11.12,11.12,0,0,1-1.12,1.14h-.81Z" transform="translate(0 -10.22)"/><g id="Ellipse_1_copy_6" data-name="Ellipse 1 copy 6"><path class="cls-1" d="M115.86,165c-19.76-21.79-39.23-6.5-42.08-4.95s11.71-3.13,17.22,8.08c5.07,10.33-4.94,22.23,2.78,31.6,4.85,5.88,15,10.85,24.79,1.39C127.07,192.85,124.06,174,115.86,165Z" transform="translate(0 -10.22)"/></g><g id="Ellipse_1_copy_7" data-name="Ellipse 1 copy 7"><path class="cls-1" d="M90.24,170C90,166.78,88.13,182,75.65,182.25c-11.5.25-18.05-13.86-29.8-10.8-7.37,1.92-16.15,9.05-11.71,21.91C38,204.54,56.35,209.76,68,206.13,96.07,197.38,90.44,173.27,90.24,170Z" transform="translate(0 -10.22)"/></g><g id="Ellipse_1_copy_8" data-name="Ellipse 1 copy 8"><path class="cls-1" d="M83.9,121c-11.43-3-26,9.29-29.47,21C46,170.23,69.15,179,72,180.65s-8.73-8.42-2-18.94c6.2-9.69,21.55-7.26,25.57-18.73C98.05,135.78,97,124.51,83.9,121Z" transform="translate(0 -10.22)"/></g></g><g id="universidade_federal_do_ceará" data-name="universidade federal do ceará"><rect x="410.18" y="213.16" width="210" height="210"/><rect y="326.48" width="402.24" height="103.68"/><rect y="214.48" width="402.24" height="103.68"/><path class="cls-2" d="M140.57,267.67a7.08,7.08,0,0,1-1.89,5.3,7.29,7.29,0,0,1-5.33,1.85h-3v9.87h-1.33V260.81h4.68Q140.57,260.81,140.57,267.67Zm-10.18,5.71H133c2.15,0,3.71-.44,4.67-1.33a5.65,5.65,0,0,0,1.44-4.32,5.53,5.53,0,0,0-1.36-4.09,5.81,5.81,0,0,0-4.21-1.33h-3.17Z" transform="translate(0 -10.22)"/><path class="cls-2" d="M154.1,284.69H143.65V260.81H154.1v1.53H145v9h8.6v1.54H145v10.24h9.11Z" transform="translate(0 -10.22)"/><path class="cls-2" d="M162.34,284.69H161V262.37h-6.22v-1.56h13.78v1.56h-6.22Z" transform="translate(0 -10.22)"/><path class="cls-2" d="M179.46,264.68a4.5,4.5,0,0,0-4,2.14,10.88,10.88,0,0,0-1.41,6q0,8,5.4,8a15.6,15.6,0,0,0,5.49-1.26v4.25A14.05,14.05,0,0,1,179,285a8.59,8.59,0,0,1-7.18-3.16c-1.66-2.11-2.48-5.13-2.48-9.07a16.15,16.15,0,0,1,1.22-6.53,9.22,9.22,0,0,1,8.87-5.79,13.24,13.24,0,0,1,6.3,1.69l-1.47,4.11a26.17,26.17,0,0,0-2.43-1.11A6.56,6.56,0,0,0,179.46,264.68Z" transform="translate(0 -10.22)"/><path class="cls-2" d="M207.84,272.71c0,4-.88,7-2.64,9.12a10.66,10.66,0,0,1-15.19,0c-1.77-2.13-2.65-5.17-2.65-9.15s.89-7,2.66-9.11,4.31-3.14,7.61-3.14,5.83,1.06,7.59,3.17S207.84,268.75,207.84,272.71Zm-15.7,0a10.84,10.84,0,0,0,1.37,6,4.62,4.62,0,0,0,4.09,2q5.46,0,5.46-8.06t-5.43-8.07a4.63,4.63,0,0,0-4.1,2A10.66,10.66,0,0,0,192.14,272.71Z" transform="translate(0 -10.22)"/><path class="cls-2" d="M220.2,284.69,215,266h-.13q.29,5.71.28,7.63v11.11H211.1V260.81h6.2l5.1,18.26h.08l5.4-18.26h6.21v23.88h-4.25V273.38c0-.53,0-1.15,0-1.84s.08-2.55.2-5.56h-.13l-5.55,18.71Z" transform="translate(0 -10.22)"/><path class="cls-2" d="M253.16,268.25a7.7,7.7,0,0,1-2.17,5.9,8.65,8.65,0,0,1-6.17,2h-2v8.5H238.3V260.81h6.87a8.52,8.52,0,0,1,6,1.87A7.2,7.2,0,0,1,253.16,268.25ZM242.86,272h1.5a4.59,4.59,0,0,0,3.15-.92,3.39,3.39,0,0,0,1.05-2.69,3.51,3.51,0,0,0-.88-2.63,3.84,3.84,0,0,0-2.74-.85h-2.08Z" transform="translate(0 -10.22)"/><path class="cls-2" d="M273.53,260.81v15.45a9.72,9.72,0,0,1-1.07,4.64,7.31,7.31,0,0,1-3.08,3.05,10.05,10.05,0,0,1-4.77,1.06,8.55,8.55,0,0,1-6.44-2.36,8.86,8.86,0,0,1-2.3-6.46V260.81h4.55v14.61a6.63,6.63,0,0,0,1,4.06,3.94,3.94,0,0,0,3.31,1.29,3.86,3.86,0,0,0,3.24-1.3,6.62,6.62,0,0,0,1-4.08V260.81Z" transform="translate(0 -10.22)"/><path class="cls-2" d="M285.89,284.69h-4.56V265h-5.84v-4.21h16.24V265h-5.84Z" transform="translate(0 -10.22)"/><path class="cls-2" d="M306.23,284.69,304.67,279h-7.84l-1.56,5.69h-4.91l7.59-24h5.58l7.62,24Zm-2.64-9.94q-2.18-7.72-2.44-8.73c-.18-.68-.31-1.21-.39-1.61q-.48,2.1-2.78,10.34Z" transform="translate(0 -10.22)"/><path class="cls-2" d="M320.78,264.68a4.5,4.5,0,0,0-4,2.14,10.79,10.79,0,0,0-1.42,6q0,8,5.4,8a15.6,15.6,0,0,0,5.49-1.26v4.25a14,14,0,0,1-5.91,1.22,8.59,8.59,0,0,1-7.18-3.16q-2.49-3.17-2.49-9.07a16.32,16.32,0,0,1,1.22-6.53,9.22,9.22,0,0,1,8.87-5.79,13.24,13.24,0,0,1,6.3,1.69l-1.47,4.11a24,24,0,0,0-2.43-1.11A6.48,6.48,0,0,0,320.78,264.68Zm2.27,24.09a3.74,3.74,0,0,1-1.11,3,5.29,5.29,0,0,1-3.44.93,6.49,6.49,0,0,1-2.14-.34v-2.75a8.07,8.07,0,0,0,1.06.23,6.33,6.33,0,0,0,1,.12c.71,0,1.06-.34,1.06-1,0-.9-.82-1.49-2.44-1.76l1.14-2.51h2.84l-.39,1a3.77,3.77,0,0,1,1.73,1.22A3,3,0,0,1,323.05,288.77Z" transform="translate(0 -10.22)"/><path class="cls-2" d="M342.81,284.69,341.25,279h-7.84l-1.56,5.69h-4.92l7.6-24h5.57l7.62,24Zm-7.89-27.51a1.21,1.21,0,0,0-.87.43,2.71,2.71,0,0,0-.61,1.32h-2.19a6.57,6.57,0,0,1,1.21-3.71,3.38,3.38,0,0,1,2.79-1.34,2.75,2.75,0,0,1,1.18.27c.39.18.77.38,1.15.59s.75.4,1.11.58a2.51,2.51,0,0,0,1.07.26,1.21,1.21,0,0,0,.88-.43,2.59,2.59,0,0,0,.61-1.3h2.19a6.45,6.45,0,0,1-1.23,3.71,3.37,3.37,0,0,1-2.77,1.33,2.75,2.75,0,0,1-1.18-.27c-.39-.17-.77-.37-1.15-.58s-.75-.41-1.11-.59A2.43,2.43,0,0,0,334.92,257.18Zm5.24,17.57Q338,267,337.73,266c-.18-.68-.31-1.21-.39-1.61q-.49,2.1-2.78,10.34Z" transform="translate(0 -10.22)"/><path class="cls-2" d="M368.75,272.71c0,4-.88,7-2.65,9.12s-4.29,3.18-7.59,3.18-5.83-1.06-7.59-3.18-2.65-5.17-2.65-9.15.89-7,2.66-9.11,4.3-3.14,7.61-3.14,5.83,1.06,7.59,3.17S368.75,268.75,368.75,272.71Zm-15.7,0a10.84,10.84,0,0,0,1.37,6,4.62,4.62,0,0,0,4.09,2q5.46,0,5.46-8.06t-5.43-8.07a4.63,4.63,0,0,0-4.1,2A10.66,10.66,0,0,0,353.05,272.71Z" transform="translate(0 -10.22)"/><path class="cls-2" d="M130.41,295.68v5.51a2.31,2.31,0,0,0,.45,1.56,1.79,1.79,0,0,0,1.41.51,2.22,2.22,0,0,0,1.85-.73,3.83,3.83,0,0,0,.59-2.38v-4.47h1.23v8.5h-1l-.17-1.14h-.07a2.47,2.47,0,0,1-1,1,3.31,3.31,0,0,1-1.53.34,3,3,0,0,1-2.21-.74,3.24,3.24,0,0,1-.73-2.36v-5.56Z" transform="translate(0 -10.22)"/><path class="cls-2" d="M143.32,304.18v-5.5a2.29,2.29,0,0,0-.45-1.55,1.8,1.8,0,0,0-1.41-.51,2.29,2.29,0,0,0-1.87.72,3.79,3.79,0,0,0-.59,2.38v4.46h-1.22v-8.5h1l.19,1.16H139a2.55,2.55,0,0,1,1.06-1,3.29,3.29,0,0,1,1.51-.35,3,3,0,0,1,2.2.74,3.24,3.24,0,0,1,.74,2.37v5.55Z" transform="translate(0 -10.22)"/><path class="cls-2" d="M146.2,293.37a.85.85,0,0,1,.21-.64.68.68,0,0,1,.51-.21.69.69,0,0,1,.51.21.87.87,0,0,1,.22.64.89.89,0,0,1-.22.65.7.7,0,0,1-.51.22.69.69,0,0,1-.51-.22A.89.89,0,0,1,146.2,293.37Zm1.33,10.81H146.3v-8.5h1.23Z" transform="translate(0 -10.22)"/><path class="cls-2" d="M151.14,304.18l-3.07-8.5h1.32l1.74,5c.39,1.18.62,1.95.69,2.3h.06c.06-.28.23-.84.51-1.71s.94-2.73,1.94-5.63h1.32l-3.08,8.5Z" transform="translate(0 -10.22)"/><path class="cls-2" d="M159.61,304.34a3.63,3.63,0,0,1-2.83-1.15,4.61,4.61,0,0,1-1-3.19,5.13,5.13,0,0,1,1-3.27,3.16,3.16,0,0,1,2.59-1.21,3,3,0,0,1,2.41,1.05,4.19,4.19,0,0,1,.88,2.78v.81H157a3.45,3.45,0,0,0,.72,2.28,2.44,2.44,0,0,0,1.92.77,6.35,6.35,0,0,0,2.59-.57v1.15a7.48,7.48,0,0,1-1.23.42A7,7,0,0,1,159.61,304.34Zm-.33-7.74a2,2,0,0,0-1.56.67,3.2,3.2,0,0,0-.68,1.85h4.23a2.89,2.89,0,0,0-.52-1.87A1.77,1.77,0,0,0,159.28,296.6Z" transform="translate(0 -10.22)"/><path class="cls-2" d="M167.61,295.52a4.13,4.13,0,0,1,1,.1l-.17,1.19a3.91,3.91,0,0,0-.89-.12,2.12,2.12,0,0,0-1.68.84,3.14,3.14,0,0,0-.7,2.09v4.56h-1.22v-8.5h1l.14,1.57h.06a3.73,3.73,0,0,1,1.08-1.28A2.38,2.38,0,0,1,167.61,295.52Z" transform="translate(0 -10.22)"/><path class="cls-2" d="M174.55,301.86a2.17,2.17,0,0,1-.84,1.83,3.81,3.81,0,0,1-2.36.65,4.9,4.9,0,0,1-2.51-.54v-1.19a6.25,6.25,0,0,0,1.25.49,5.32,5.32,0,0,0,1.29.17,2.72,2.72,0,0,0,1.47-.32,1.06,1.06,0,0,0,.52-1,1.1,1.1,0,0,0-.41-.85,6.33,6.33,0,0,0-1.6-.83,8.47,8.47,0,0,1-1.6-.78,2.16,2.16,0,0,1-.71-.74,2,2,0,0,1-.23-1,1.94,1.94,0,0,1,.8-1.65,3.62,3.62,0,0,1,2.21-.6,6.21,6.21,0,0,1,2.55.56l-.43,1.05a5.7,5.7,0,0,0-2.21-.53,2.42,2.42,0,0,0-1.31.29.89.89,0,0,0-.45.79,1,1,0,0,0,.17.58,1.64,1.64,0,0,0,.53.46,14,14,0,0,0,1.42.63,5.21,5.21,0,0,1,2,1.11A2,2,0,0,1,174.55,301.86Z" transform="translate(0 -10.22)"/><path class="cls-2" d="M175.69,293.37a.89.89,0,0,1,.2-.64.74.74,0,0,1,1,0,.87.87,0,0,1,.21.64.89.89,0,0,1-.21.65.71.71,0,0,1-1,0A.94.94,0,0,1,175.69,293.37ZM177,304.18h-1.23v-8.5H177Z" transform="translate(0 -10.22)"/><path class="cls-2" d="M184.37,303h-.07a2.83,2.83,0,0,1-2.54,1.3,3,3,0,0,1-2.47-1.14,5.2,5.2,0,0,1-.88-3.25,5.27,5.27,0,0,1,.88-3.26,2.93,2.93,0,0,1,2.47-1.17,2.87,2.87,0,0,1,2.52,1.26h.1l0-.61,0-.6v-3.46h1.23v12.07h-1Zm-2.46.22a2.16,2.16,0,0,0,1.82-.72,3.75,3.75,0,0,0,.57-2.32V300a4.47,4.47,0,0,0-.57-2.58,2.13,2.13,0,0,0-1.83-.77,1.86,1.86,0,0,0-1.65.88,4.59,4.59,0,0,0-.57,2.49,4.39,4.39,0,0,0,.57,2.46A1.89,1.89,0,0,0,181.91,303.26Z" transform="translate(0 -10.22)"/><path class="cls-2" d="M192.34,304.18,192.1,303H192a3.29,3.29,0,0,1-1.21,1.08,3.49,3.49,0,0,1-1.5.29,2.62,2.62,0,0,1-1.88-.65,2.45,2.45,0,0,1-.69-1.86q0-2.58,3.92-2.7l1.38-.05v-.52a2.25,2.25,0,0,0-.41-1.48,1.64,1.64,0,0,0-1.31-.48,5.17,5.17,0,0,0-2.29.65l-.38-1a5.64,5.64,0,0,1,1.31-.54,5.41,5.41,0,0,1,1.43-.19,3,3,0,0,1,2.14.67,2.9,2.9,0,0,1,.7,2.17v5.8Zm-2.76-.91a2.39,2.39,0,0,0,1.79-.66,2.48,2.48,0,0,0,.66-1.84V300l-1.23.05a4.36,4.36,0,0,0-2.11.48,1.46,1.46,0,0,0-.64,1.32,1.35,1.35,0,0,0,.4,1.06A1.63,1.63,0,0,0,189.58,303.27Z" transform="translate(0 -10.22)"/><path class="cls-2" d="M200.53,303h-.07a2.82,2.82,0,0,1-2.54,1.3,3,3,0,0,1-2.47-1.14,5.2,5.2,0,0,1-.88-3.25,5.27,5.27,0,0,1,.89-3.26,3.17,3.17,0,0,1,5,.09h.09l0-.61,0-.6v-3.46h1.23v12.07h-1Zm-2.45.22a2.19,2.19,0,0,0,1.82-.72,3.82,3.82,0,0,0,.56-2.32V300a4.47,4.47,0,0,0-.57-2.58,2.13,2.13,0,0,0-1.83-.77,1.86,1.86,0,0,0-1.65.88,4.59,4.59,0,0,0-.57,2.49,4.39,4.39,0,0,0,.57,2.46A1.9,1.9,0,0,0,198.08,303.26Z" transform="translate(0 -10.22)"/><path class="cls-2" d="M207,304.34a3.63,3.63,0,0,1-2.83-1.15,4.56,4.56,0,0,1-1-3.19,5.13,5.13,0,0,1,1-3.27,3.17,3.17,0,0,1,2.59-1.21,3,3,0,0,1,2.41,1.05,4.19,4.19,0,0,1,.88,2.78v.81h-5.57a3.45,3.45,0,0,0,.72,2.28,2.44,2.44,0,0,0,1.92.77,6.35,6.35,0,0,0,2.59-.57v1.15a7.48,7.48,0,0,1-1.23.42A7,7,0,0,1,207,304.34Zm-.33-7.74a2,2,0,0,0-1.56.67,3.2,3.2,0,0,0-.68,1.85h4.23a2.89,2.89,0,0,0-.52-1.87A1.77,1.77,0,0,0,206.62,296.6Z" transform="translate(0 -10.22)"/><path class="cls-2" d="M218.08,296.68H216v7.5h-1.23v-7.5h-1.45v-.58l1.45-.47v-.47c0-2.09.87-3.14,2.61-3.14a5.12,5.12,0,0,1,1.5.28l-.31,1a4,4,0,0,0-1.21-.24,1.16,1.16,0,0,0-1,.48,2.85,2.85,0,0,0-.33,1.56v.55h2.06Z" transform="translate(0 -10.22)"/><path class="cls-2" d="M222.21,304.34a3.66,3.66,0,0,1-2.83-1.15,4.6,4.6,0,0,1-1-3.19,5.13,5.13,0,0,1,1-3.27,3.15,3.15,0,0,1,2.59-1.21,3,3,0,0,1,2.4,1.05,4.2,4.2,0,0,1,.89,2.78v.81h-5.57a3.45,3.45,0,0,0,.72,2.28,2.43,2.43,0,0,0,1.92.77,6.27,6.27,0,0,0,2.58-.57v1.15a5.73,5.73,0,0,1-2.63.55Zm-.33-7.74a1.92,1.92,0,0,0-1.55.67,3.07,3.07,0,0,0-.68,1.85h4.23a3,3,0,0,0-.52-1.87A1.8,1.8,0,0,0,221.88,296.6Z" transform="translate(0 -10.22)"/><path class="cls-2" d="M232,303H232a2.82,2.82,0,0,1-2.54,1.3A2.93,2.93,0,0,1,227,303.2a5.2,5.2,0,0,1-.89-3.25,5.27,5.27,0,0,1,.89-3.26,3.17,3.17,0,0,1,5,.09h.1l-.06-.61,0-.6v-3.46h1.23v12.07h-1Zm-2.45.22a2.17,2.17,0,0,0,1.82-.72,3.75,3.75,0,0,0,.56-2.32V300a4.47,4.47,0,0,0-.57-2.58,2.13,2.13,0,0,0-1.83-.77,1.86,1.86,0,0,0-1.64.88,4.5,4.5,0,0,0-.58,2.49,4.39,4.39,0,0,0,.57,2.46A1.91,1.91,0,0,0,229.58,303.26Z" transform="translate(0 -10.22)"/><path class="cls-2" d="M238.45,304.34a3.65,3.65,0,0,1-2.83-1.15,4.61,4.61,0,0,1-1-3.19,5.08,5.08,0,0,1,1-3.27,3.14,3.14,0,0,1,2.58-1.21,3,3,0,0,1,2.41,1.05,4.2,4.2,0,0,1,.89,2.78v.81h-5.58a3.56,3.56,0,0,0,.72,2.28,2.46,2.46,0,0,0,1.93.77,6.27,6.27,0,0,0,2.58-.57v1.15a5.73,5.73,0,0,1-2.63.55Zm-.33-7.74a2,2,0,0,0-1.56.67,3.2,3.2,0,0,0-.68,1.85h4.23a3,3,0,0,0-.51-1.87A1.8,1.8,0,0,0,238.12,296.6Z" transform="translate(0 -10.22)"/><path class="cls-2" d="M246.45,295.52a4.13,4.13,0,0,1,1,.1l-.17,1.19a3.91,3.91,0,0,0-.89-.12,2.13,2.13,0,0,0-1.68.84,3.19,3.19,0,0,0-.69,2.09v4.56h-1.23v-8.5h1l.14,1.57H244a3.65,3.65,0,0,1,1.09-1.28A2.33,2.33,0,0,1,246.45,295.52Z" transform="translate(0 -10.22)"/><path class="cls-2" d="M253.15,304.18l-.24-1.21h-.06a3.37,3.37,0,0,1-1.21,1.08,3.49,3.49,0,0,1-1.5.29,2.66,2.66,0,0,1-1.89-.65,2.49,2.49,0,0,1-.68-1.86q0-2.58,3.92-2.7l1.37-.05v-.52a2.26,2.26,0,0,0-.4-1.48,1.65,1.65,0,0,0-1.32-.48,5.17,5.17,0,0,0-2.28.65l-.38-1a5.46,5.46,0,0,1,1.31-.54,5.35,5.35,0,0,1,1.43-.19,3,3,0,0,1,2.14.67,2.9,2.9,0,0,1,.7,2.17v5.8Zm-2.77-.91a2.4,2.4,0,0,0,1.8-.66,2.48,2.48,0,0,0,.66-1.84V300l-1.23.05a4.33,4.33,0,0,0-2.11.48,1.46,1.46,0,0,0-.64,1.32,1.35,1.35,0,0,0,.4,1.06A1.62,1.62,0,0,0,250.38,303.27Z" transform="translate(0 -10.22)"/><path class="cls-2" d="M257.05,304.18h-1.22V292.11h1.22Z" transform="translate(0 -10.22)"/><path class="cls-2" d="M267.58,303h-.07a2.83,2.83,0,0,1-2.54,1.3,3,3,0,0,1-2.47-1.14,6.43,6.43,0,0,1,0-6.51,3.17,3.17,0,0,1,5,.09h.09l0-.61,0-.6v-3.46h1.23v12.07h-1Zm-2.45.22a2.19,2.19,0,0,0,1.82-.72,3.82,3.82,0,0,0,.56-2.32V300a4.47,4.47,0,0,0-.57-2.58,2.13,2.13,0,0,0-1.83-.77,1.86,1.86,0,0,0-1.65.88,4.59,4.59,0,0,0-.57,2.49,4.39,4.39,0,0,0,.57,2.46A1.9,1.9,0,0,0,265.13,303.26Z" transform="translate(0 -10.22)"/><path class="cls-2" d="M277.56,299.92a4.87,4.87,0,0,1-1,3.25,3.59,3.59,0,0,1-6-.9,5.54,5.54,0,0,1-.46-2.35,4.86,4.86,0,0,1,1-3.24,3.42,3.42,0,0,1,2.74-1.16,3.34,3.34,0,0,1,2.7,1.19A4.8,4.8,0,0,1,277.56,299.92Zm-6.16,0a4.16,4.16,0,0,0,.62,2.49,2.38,2.38,0,0,0,3.65,0,4.16,4.16,0,0,0,.62-2.49,4.06,4.06,0,0,0-.62-2.46,2.15,2.15,0,0,0-1.84-.84,2.1,2.1,0,0,0-1.82.83A4.13,4.13,0,0,0,271.4,299.92Z" transform="translate(0 -10.22)"/><path class="cls-2" d="M285.36,304.34a3.36,3.36,0,0,1-2.72-1.14,4.85,4.85,0,0,1-1-3.22,5,5,0,0,1,1-3.29,3.45,3.45,0,0,1,2.79-1.17,5.2,5.2,0,0,1,1.17.14,3.3,3.3,0,0,1,.91.31l-.37,1.09a5.46,5.46,0,0,0-.89-.28,3.53,3.53,0,0,0-.85-.12c-1.64,0-2.46,1.11-2.46,3.31a4.07,4.07,0,0,0,.6,2.4,2,2,0,0,0,1.78.84,5.16,5.16,0,0,0,2.08-.46v1.14A4.23,4.23,0,0,1,285.36,304.34Z" transform="translate(0 -10.22)"/><path class="cls-2" d="M292,304.34a3.63,3.63,0,0,1-2.83-1.15,4.56,4.56,0,0,1-1-3.19,5.13,5.13,0,0,1,1-3.27,3.16,3.16,0,0,1,2.59-1.21,3,3,0,0,1,2.41,1.05,4.19,4.19,0,0,1,.88,2.78v.81h-5.57a3.45,3.45,0,0,0,.72,2.28,2.44,2.44,0,0,0,1.92.77,6.35,6.35,0,0,0,2.59-.57v1.15a7.48,7.48,0,0,1-1.23.42A7,7,0,0,1,292,304.34Zm-.33-7.74a2,2,0,0,0-1.56.67,3.13,3.13,0,0,0-.68,1.85h4.23a2.89,2.89,0,0,0-.52-1.87A1.77,1.77,0,0,0,291.66,296.6Z" transform="translate(0 -10.22)"/><path class="cls-2" d="M301.27,304.18,301,303H301a3.37,3.37,0,0,1-1.21,1.08,3.49,3.49,0,0,1-1.5.29,2.66,2.66,0,0,1-1.89-.65,2.49,2.49,0,0,1-.68-1.86q0-2.58,3.92-2.7l1.37-.05v-.52a2.26,2.26,0,0,0-.4-1.48,1.65,1.65,0,0,0-1.32-.48,5.17,5.17,0,0,0-2.28.65l-.38-1a5.46,5.46,0,0,1,1.31-.54,5.35,5.35,0,0,1,1.43-.19,3,3,0,0,1,2.14.67,2.9,2.9,0,0,1,.7,2.17v5.8Zm-2.77-.91a2.4,2.4,0,0,0,1.8-.66,2.48,2.48,0,0,0,.66-1.84V300l-1.23.05a4.36,4.36,0,0,0-2.11.48,1.46,1.46,0,0,0-.64,1.32,1.35,1.35,0,0,0,.4,1.06A1.62,1.62,0,0,0,298.5,303.27Z" transform="translate(0 -10.22)"/><path class="cls-2" d="M307.64,295.52a4.13,4.13,0,0,1,1,.1l-.17,1.19a3.91,3.91,0,0,0-.89-.12,2.13,2.13,0,0,0-1.68.84,3.2,3.2,0,0,0-.7,2.09v4.56H304v-8.5h1l.14,1.57h.06a3.65,3.65,0,0,1,1.09-1.28A2.33,2.33,0,0,1,307.64,295.52Z" transform="translate(0 -10.22)"/><path class="cls-2" d="M314.34,304.18,314.1,303H314a3.37,3.37,0,0,1-1.21,1.08,3.49,3.49,0,0,1-1.5.29,2.66,2.66,0,0,1-1.89-.65,2.49,2.49,0,0,1-.68-1.86q0-2.58,3.92-2.7l1.37-.05v-.52a2.2,2.2,0,0,0-.41-1.48,1.63,1.63,0,0,0-1.31-.48,5.17,5.17,0,0,0-2.28.65l-.38-1a5.46,5.46,0,0,1,1.31-.54,5.35,5.35,0,0,1,1.43-.19,3,3,0,0,1,2.14.67,2.9,2.9,0,0,1,.7,2.17v5.8Zm-2.77-.91a2.4,2.4,0,0,0,1.8-.66,2.48,2.48,0,0,0,.65-1.84V300l-1.22.05a4.33,4.33,0,0,0-2.11.48,1.46,1.46,0,0,0-.64,1.32,1.35,1.35,0,0,0,.4,1.06A1.62,1.62,0,0,0,311.57,303.27Zm-.28-8.91c.23-.32.49-.71.76-1.16s.49-.86.65-1.19h1.49v.16a14.08,14.08,0,0,1-2.09,2.38h-.81Z" transform="translate(0 -10.22)"/><g id="Ellipse_1_copy_6-2" data-name="Ellipse 1 copy 6"><path class="cls-3" d="M115.74,278.34c-19.76-21.79-39.23-6.51-42.08-5s11.71-3.13,17.22,8.09c5.07,10.33-4.94,22.22,2.78,31.59,4.85,5.89,15,10.85,24.79,1.39C127,306.23,123.94,287.39,115.74,278.34Z" transform="translate(0 -10.22)"/></g><g id="Ellipse_1_copy_7-2" data-name="Ellipse 1 copy 7"><path class="cls-3" d="M90.12,283.41c-.21-3.24-2.11,11.95-14.59,12.22-11.5.25-18.05-13.85-29.8-10.8-7.37,1.92-16.15,9.06-11.71,21.91,3.87,11.19,22.21,16.4,33.86,12.77C96,310.76,90.32,286.65,90.12,283.41Z" transform="translate(0 -10.22)"/></g><g id="Ellipse_1_copy_8-2" data-name="Ellipse 1 copy 8"><path class="cls-3" d="M83.78,234.41c-11.43-3-26,9.3-29.47,21C45.89,283.61,69,292.39,71.83,294s-8.73-8.42-2-18.94c6.2-9.69,21.55-7.26,25.57-18.73C97.93,249.17,96.92,237.89,83.78,234.41Z" transform="translate(0 -10.22)"/></g><path class="cls-4" d="M140.69,375.28a7.09,7.09,0,0,1-1.89,5.31,7.29,7.29,0,0,1-5.33,1.85h-3v9.86h-1.33V368.42h4.68Q140.69,368.42,140.69,375.28ZM130.51,381h2.63q3.23,0,4.67-1.33a5.65,5.65,0,0,0,1.44-4.32,5.51,5.51,0,0,0-1.36-4.09,5.81,5.81,0,0,0-4.21-1.33h-3.17Z" transform="translate(0 -10.22)"/><path class="cls-4" d="M154.22,392.3H143.77V368.42h10.45V370h-9.11v9h8.6v1.54h-8.6v10.24h9.11Z" transform="translate(0 -10.22)"/><path class="cls-4" d="M162.46,392.3h-1.34V370H154.9v-1.57h13.78V370h-6.22Z" transform="translate(0 -10.22)"/><path class="cls-4" d="M179.58,372.29a4.51,4.51,0,0,0-4,2.15,10.85,10.85,0,0,0-1.41,6q0,8,5.4,8a15.56,15.56,0,0,0,5.49-1.25v4.24a13.91,13.91,0,0,1-5.92,1.23,8.59,8.59,0,0,1-7.18-3.16c-1.66-2.11-2.48-5.13-2.48-9.07a16.12,16.12,0,0,1,1.22-6.53,9.47,9.47,0,0,1,3.51-4.3,9.61,9.61,0,0,1,5.36-1.49,13.34,13.34,0,0,1,6.3,1.68l-1.47,4.12a21.81,21.81,0,0,0-2.43-1.11A6.58,6.58,0,0,0,179.58,372.29Z" transform="translate(0 -10.22)"/><path class="cls-4" d="M208,380.33q0,5.93-2.64,9.11a10.64,10.64,0,0,1-15.19,0q-2.65-3.18-2.65-9.14c0-4,.89-7,2.66-9.11s4.31-3.14,7.61-3.14,5.84,1.05,7.59,3.17S208,376.37,208,380.33Zm-15.7,0a10.84,10.84,0,0,0,1.37,6,4.61,4.61,0,0,0,4.09,2q5.46,0,5.46-8.05t-5.43-8.07a4.64,4.64,0,0,0-4.1,2A10.72,10.72,0,0,0,192.26,380.33Z" transform="translate(0 -10.22)"/><path class="cls-4" d="M220.32,392.3l-5.18-18.73H215q.28,5.71.28,7.63v11.1h-4.07V368.42h6.2l5.1,18.26h.08l5.4-18.26h6.21V392.3H230V381c0-.53,0-1.15,0-1.85s.08-2.54.2-5.55h-.13l-5.55,18.7Z" transform="translate(0 -10.22)"/><path class="cls-4" d="M253.28,375.87a7.7,7.7,0,0,1-2.17,5.9,8.65,8.65,0,0,1-6.17,2h-2v8.49h-4.56V368.42h6.87a8.57,8.57,0,0,1,6,1.87A7.24,7.24,0,0,1,253.28,375.87ZM243,379.66h1.5a4.65,4.65,0,0,0,3.15-.92,3.39,3.39,0,0,0,1.05-2.69,3.5,3.5,0,0,0-.88-2.63,3.84,3.84,0,0,0-2.74-.85H243Z" transform="translate(0 -10.22)"/><path class="cls-4" d="M273.65,368.42v15.45a9.69,9.69,0,0,1-1.07,4.64,7.27,7.27,0,0,1-3.08,3.06,10.05,10.05,0,0,1-4.77,1.06,8.59,8.59,0,0,1-6.44-2.36,8.87,8.87,0,0,1-2.3-6.46V368.42h4.55V383a6.59,6.59,0,0,0,1,4,3.94,3.94,0,0,0,3.31,1.29,3.83,3.83,0,0,0,3.24-1.3,6.57,6.57,0,0,0,1-4.07V368.42Z" transform="translate(0 -10.22)"/><path class="cls-4" d="M286,392.3h-4.56V372.64h-5.84v-4.22h16.24v4.22H286Z" transform="translate(0 -10.22)"/><path class="cls-4" d="M306.35,392.3l-1.56-5.68H297l-1.56,5.68h-4.91l7.59-24h5.58l7.62,24Zm-2.64-9.93q-2.18-7.72-2.44-8.74c-.18-.67-.31-1.21-.39-1.6q-.48,2.1-2.78,10.34Z" transform="translate(0 -10.22)"/><path class="cls-4" d="M320.9,372.29a4.5,4.5,0,0,0-4,2.15,10.76,10.76,0,0,0-1.42,6q0,8,5.4,8a15.56,15.56,0,0,0,5.49-1.25v4.24a13.83,13.83,0,0,1-5.91,1.23,8.59,8.59,0,0,1-7.18-3.16q-2.49-3.17-2.49-9.07a16.29,16.29,0,0,1,1.22-6.53,9.18,9.18,0,0,1,8.87-5.79,13.34,13.34,0,0,1,6.3,1.68l-1.47,4.12a20.27,20.27,0,0,0-2.43-1.11A6.5,6.5,0,0,0,320.9,372.29Zm2.27,24.1a3.74,3.74,0,0,1-1.11,3,5.29,5.29,0,0,1-3.44.93,6.76,6.76,0,0,1-2.14-.34v-2.75a10.13,10.13,0,0,0,1.06.23,6.1,6.1,0,0,0,1,.11c.71,0,1.06-.33,1.06-1,0-.9-.82-1.49-2.44-1.76l1.14-2.52h2.84l-.39,1a3.77,3.77,0,0,1,1.73,1.22A3,3,0,0,1,323.17,396.39Z" transform="translate(0 -10.22)"/><path class="cls-4" d="M342.93,392.3l-1.56-5.68h-7.84L332,392.3h-4.92l7.6-24h5.57l7.62,24ZM335,364.8a1.21,1.21,0,0,0-.87.43,2.71,2.71,0,0,0-.61,1.31h-2.19a6.56,6.56,0,0,1,1.21-3.7,3.35,3.35,0,0,1,2.79-1.34,2.75,2.75,0,0,1,1.18.27c.39.18.77.37,1.15.59s.75.4,1.11.58a2.51,2.51,0,0,0,1.07.26,1.25,1.25,0,0,0,.88-.43,2.63,2.63,0,0,0,.61-1.31h2.19a6.5,6.5,0,0,1-1.22,3.71,3.38,3.38,0,0,1-2.78,1.34,2.75,2.75,0,0,1-1.18-.27c-.39-.18-.77-.37-1.15-.59s-.75-.4-1.11-.58A2.4,2.4,0,0,0,335,364.8Zm5.24,17.57q-2.16-7.72-2.43-8.74c-.18-.67-.31-1.21-.39-1.6q-.49,2.1-2.78,10.34Z" transform="translate(0 -10.22)"/><path class="cls-4" d="M368.87,380.33q0,5.93-2.65,9.11t-7.59,3.19c-3.29,0-5.83-1.06-7.59-3.19s-2.65-5.17-2.65-9.14.89-7,2.66-9.11,4.3-3.14,7.61-3.14,5.83,1.05,7.59,3.17S368.87,376.37,368.87,380.33Zm-15.7,0a10.84,10.84,0,0,0,1.37,6,4.61,4.61,0,0,0,4.09,2q5.46,0,5.46-8.05t-5.43-8.07a4.64,4.64,0,0,0-4.1,2A10.72,10.72,0,0,0,353.17,380.33Z" transform="translate(0 -10.22)"/><path class="cls-2" d="M130.53,403.3v5.51a2.29,2.29,0,0,0,.45,1.55,1.79,1.79,0,0,0,1.41.52,2.25,2.25,0,0,0,1.85-.73,3.84,3.84,0,0,0,.59-2.39V403.3h1.23v8.5h-1l-.17-1.14h-.07a2.47,2.47,0,0,1-1,1,3.44,3.44,0,0,1-1.53.33,3,3,0,0,1-2.21-.73,3.24,3.24,0,0,1-.73-2.36V403.3Z" transform="translate(0 -10.22)"/><path class="cls-2" d="M143.44,411.8v-5.5a2.29,2.29,0,0,0-.45-1.55,1.8,1.8,0,0,0-1.41-.52,2.27,2.27,0,0,0-1.87.73,3.79,3.79,0,0,0-.59,2.38v4.46H137.9v-8.5h1l.19,1.16h.06a2.55,2.55,0,0,1,1.06-1,3.29,3.29,0,0,1,1.51-.35,3,3,0,0,1,2.2.74,3.21,3.21,0,0,1,.74,2.37v5.55Z" transform="translate(0 -10.22)"/><path class="cls-2" d="M146.32,401a.89.89,0,0,1,.21-.65.71.71,0,0,1,.51-.2.69.69,0,0,1,.51.21.87.87,0,0,1,.22.64.89.89,0,0,1-.22.65.69.69,0,0,1-.51.21.68.68,0,0,1-.51-.21A.89.89,0,0,1,146.32,401Zm1.33,10.81h-1.23v-8.5h1.23Z" transform="translate(0 -10.22)"/><path class="cls-2" d="M151.26,411.8l-3.07-8.5h1.32l1.74,5c.39,1.18.62,1.94.69,2.29H152c.06-.27.23-.84.51-1.7s.94-2.74,1.94-5.63h1.32l-3.08,8.5Z" transform="translate(0 -10.22)"/><path class="cls-2" d="M159.73,412a3.63,3.63,0,0,1-2.83-1.14,4.61,4.61,0,0,1-1-3.19,5.13,5.13,0,0,1,1-3.27,3.13,3.13,0,0,1,2.59-1.21,3,3,0,0,1,2.41,1.05,4.17,4.17,0,0,1,.88,2.78v.81h-5.57a3.4,3.4,0,0,0,.72,2.27,2.42,2.42,0,0,0,1.92.78,6.17,6.17,0,0,0,2.59-.58v1.15a6.73,6.73,0,0,1-1.23.43A7.09,7.09,0,0,1,159.73,412Zm-.33-7.73a2,2,0,0,0-1.56.67,3.2,3.2,0,0,0-.68,1.84h4.23a2.88,2.88,0,0,0-.52-1.86A1.74,1.74,0,0,0,159.4,404.22Z" transform="translate(0 -10.22)"/><path class="cls-2" d="M167.73,403.14a4.78,4.78,0,0,1,1,.09l-.17,1.2a3.91,3.91,0,0,0-.89-.12,2.13,2.13,0,0,0-1.68.84,3.12,3.12,0,0,0-.7,2.09v4.56H164v-8.5h1l.14,1.57h.06a3.73,3.73,0,0,1,1.08-1.28A2.38,2.38,0,0,1,167.73,403.14Z" transform="translate(0 -10.22)"/><path class="cls-2" d="M174.67,409.48a2.17,2.17,0,0,1-.84,1.83,3.81,3.81,0,0,1-2.36.64,4.91,4.91,0,0,1-2.51-.53v-1.2a5.7,5.7,0,0,0,1.25.49,4.89,4.89,0,0,0,1.29.18,2.81,2.81,0,0,0,1.47-.32,1.07,1.07,0,0,0,.52-1,1.09,1.09,0,0,0-.41-.85,6,6,0,0,0-1.6-.84,8,8,0,0,1-1.6-.77,2.18,2.18,0,0,1-.71-.75,2,2,0,0,1-.23-1,1.93,1.93,0,0,1,.8-1.64,3.62,3.62,0,0,1,2.21-.6,6.21,6.21,0,0,1,2.55.56l-.43,1.05a5.49,5.49,0,0,0-2.21-.53,2.33,2.33,0,0,0-1.31.29.89.89,0,0,0-.45.79,1,1,0,0,0,.17.58,1.77,1.77,0,0,0,.53.46,14,14,0,0,0,1.42.63,5.08,5.08,0,0,1,1.95,1.11A2,2,0,0,1,174.67,409.48Z" transform="translate(0 -10.22)"/><path class="cls-2" d="M175.81,401a.94.94,0,0,1,.2-.65.73.73,0,0,1,.52-.2.69.69,0,0,1,.51.21.87.87,0,0,1,.21.64.89.89,0,0,1-.21.65.74.74,0,0,1-1,0A.94.94,0,0,1,175.81,401Zm1.33,10.81h-1.23v-8.5h1.23Z" transform="translate(0 -10.22)"/><path class="cls-2" d="M184.49,410.66h-.07a2.84,2.84,0,0,1-2.54,1.29,3,3,0,0,1-2.47-1.14,5.18,5.18,0,0,1-.88-3.24,5.32,5.32,0,0,1,.88-3.27,3,3,0,0,1,2.47-1.16,2.87,2.87,0,0,1,2.52,1.26h.1l-.05-.62,0-.59v-3.46h1.23V411.8h-1Zm-2.46.22a2.16,2.16,0,0,0,1.82-.72,3.75,3.75,0,0,0,.57-2.32v-.27a4.47,4.47,0,0,0-.57-2.58,2.13,2.13,0,0,0-1.83-.77,1.84,1.84,0,0,0-1.65.88,4.59,4.59,0,0,0-.57,2.49,4.39,4.39,0,0,0,.57,2.46A1.89,1.89,0,0,0,182,410.88Z" transform="translate(0 -10.22)"/><path class="cls-2" d="M192.46,411.8l-.24-1.21h-.06a3.38,3.38,0,0,1-1.21,1.08,3.49,3.49,0,0,1-1.5.28,2.58,2.58,0,0,1-1.88-.65,2.41,2.41,0,0,1-.69-1.85q0-2.58,3.92-2.7l1.38-.05v-.53a2.22,2.22,0,0,0-.41-1.47,1.64,1.64,0,0,0-1.31-.48,5.17,5.17,0,0,0-2.29.65l-.38-1a6.09,6.09,0,0,1,1.31-.53,5.41,5.41,0,0,1,1.43-.19,3,3,0,0,1,2.14.67,2.88,2.88,0,0,1,.7,2.16v5.81Zm-2.76-.91a2.39,2.39,0,0,0,1.79-.66,2.49,2.49,0,0,0,.66-1.85v-.76l-1.23.05a4.36,4.36,0,0,0-2.11.48,1.45,1.45,0,0,0-.64,1.31,1.37,1.37,0,0,0,.4,1.07A1.63,1.63,0,0,0,189.7,410.89Z" transform="translate(0 -10.22)"/><path class="cls-2" d="M200.65,410.66h-.07A2.83,2.83,0,0,1,198,412a3,3,0,0,1-2.47-1.14,5.18,5.18,0,0,1-.88-3.24,5.32,5.32,0,0,1,.89-3.27,3.18,3.18,0,0,1,5,.1h.09l0-.62,0-.59v-3.46h1.23V411.8h-1Zm-2.45.22a2.19,2.19,0,0,0,1.82-.72,3.82,3.82,0,0,0,.56-2.32v-.27A4.47,4.47,0,0,0,200,405a2.13,2.13,0,0,0-1.83-.77,1.84,1.84,0,0,0-1.65.88,4.59,4.59,0,0,0-.57,2.49,4.39,4.39,0,0,0,.57,2.46A1.9,1.9,0,0,0,198.2,410.88Z" transform="translate(0 -10.22)"/><path class="cls-2" d="M207.07,412a3.63,3.63,0,0,1-2.83-1.14,4.61,4.61,0,0,1-1-3.19,5.13,5.13,0,0,1,1-3.27,3.15,3.15,0,0,1,2.59-1.21,3,3,0,0,1,2.41,1.05A4.17,4.17,0,0,1,210,407v.81h-5.57a3.4,3.4,0,0,0,.72,2.27,2.42,2.42,0,0,0,1.92.78,6.2,6.2,0,0,0,2.59-.58v1.15a6.73,6.73,0,0,1-1.23.43A7.09,7.09,0,0,1,207.07,412Zm-.33-7.73a2,2,0,0,0-1.56.67,3.2,3.2,0,0,0-.68,1.84h4.23a2.88,2.88,0,0,0-.52-1.86A1.74,1.74,0,0,0,206.74,404.22Z" transform="translate(0 -10.22)"/><path class="cls-2" d="M218.2,404.3h-2.06v7.5h-1.23v-7.5h-1.45v-.59l1.45-.46v-.47c0-2.09.87-3.14,2.61-3.14a5.08,5.08,0,0,1,1.5.27l-.31,1a4,4,0,0,0-1.21-.24,1.17,1.17,0,0,0-1,.49,2.81,2.81,0,0,0-.33,1.55v.56h2.06Z" transform="translate(0 -10.22)"/><path class="cls-2" d="M222.34,412a3.66,3.66,0,0,1-2.84-1.14,4.6,4.6,0,0,1-1-3.19,5.13,5.13,0,0,1,1-3.27,3.12,3.12,0,0,1,2.59-1.21,3,3,0,0,1,2.4,1.05,4.18,4.18,0,0,1,.89,2.78v.81h-5.57a3.4,3.4,0,0,0,.72,2.27,2.4,2.4,0,0,0,1.92.78,6.13,6.13,0,0,0,2.58-.58v1.15a6.25,6.25,0,0,1-1.23.43A6.91,6.91,0,0,1,222.34,412Zm-.34-7.73a1.94,1.94,0,0,0-1.55.67,3.13,3.13,0,0,0-.68,1.84H224a2.94,2.94,0,0,0-.52-1.86A1.77,1.77,0,0,0,222,404.22Z" transform="translate(0 -10.22)"/><path class="cls-2" d="M232.15,410.66h-.07a2.82,2.82,0,0,1-2.53,1.29,2.93,2.93,0,0,1-2.47-1.14,5.18,5.18,0,0,1-.89-3.24,5.32,5.32,0,0,1,.89-3.27,2.93,2.93,0,0,1,2.47-1.16,2.9,2.9,0,0,1,2.52,1.26h.1l-.06-.62,0-.59v-3.46h1.23V411.8h-1Zm-2.45.22a2.17,2.17,0,0,0,1.82-.72,3.75,3.75,0,0,0,.56-2.32v-.27a4.47,4.47,0,0,0-.57-2.58,2.13,2.13,0,0,0-1.83-.77,1.84,1.84,0,0,0-1.64.88,4.5,4.5,0,0,0-.58,2.49,4.39,4.39,0,0,0,.57,2.46A1.91,1.91,0,0,0,229.7,410.88Z" transform="translate(0 -10.22)"/><path class="cls-2" d="M238.57,412a3.64,3.64,0,0,1-2.83-1.14,4.61,4.61,0,0,1-1-3.19,5.08,5.08,0,0,1,1-3.27,3.11,3.11,0,0,1,2.58-1.21,3,3,0,0,1,2.41,1.05,4.18,4.18,0,0,1,.89,2.78v.81H236a3.51,3.51,0,0,0,.72,2.27,2.44,2.44,0,0,0,1.93.78,6.13,6.13,0,0,0,2.58-.58v1.15a6.25,6.25,0,0,1-1.23.43A7,7,0,0,1,238.57,412Zm-.33-7.73a2,2,0,0,0-1.56.67,3.2,3.2,0,0,0-.68,1.84h4.23a2.94,2.94,0,0,0-.51-1.86A1.77,1.77,0,0,0,238.24,404.22Z" transform="translate(0 -10.22)"/><path class="cls-2" d="M246.57,403.14a4.78,4.78,0,0,1,1,.09l-.17,1.2a3.91,3.91,0,0,0-.89-.12,2.13,2.13,0,0,0-1.68.84,3.17,3.17,0,0,0-.69,2.09v4.56h-1.23v-8.5h1l.14,1.57h.06a3.65,3.65,0,0,1,1.09-1.28A2.33,2.33,0,0,1,246.57,403.14Z" transform="translate(0 -10.22)"/><path class="cls-2" d="M253.27,411.8l-.24-1.21H253a2.93,2.93,0,0,1-2.71,1.36,2.62,2.62,0,0,1-1.89-.65,2.45,2.45,0,0,1-.68-1.85q0-2.58,3.92-2.7l1.37-.05v-.53a2.23,2.23,0,0,0-.4-1.47,1.65,1.65,0,0,0-1.32-.48,5.17,5.17,0,0,0-2.28.65l-.38-1a5.89,5.89,0,0,1,1.31-.53,5.35,5.35,0,0,1,1.43-.19,3,3,0,0,1,2.14.67,2.88,2.88,0,0,1,.7,2.16v5.81Zm-2.77-.91a2.4,2.4,0,0,0,1.8-.66,2.49,2.49,0,0,0,.66-1.85v-.76l-1.23.05a4.36,4.36,0,0,0-2.11.48,1.45,1.45,0,0,0-.64,1.31,1.37,1.37,0,0,0,.4,1.07A1.62,1.62,0,0,0,250.5,410.89Z" transform="translate(0 -10.22)"/><path class="cls-2" d="M257.17,411.8H256V399.73h1.22Z" transform="translate(0 -10.22)"/><path class="cls-2" d="M267.7,410.66h-.07a2.84,2.84,0,0,1-2.54,1.29,3,3,0,0,1-2.47-1.14,5.18,5.18,0,0,1-.88-3.24,5.25,5.25,0,0,1,.89-3.27,3.18,3.18,0,0,1,5,.1h.09l0-.62,0-.59v-3.46h1.23V411.8h-1Zm-2.45.22a2.19,2.19,0,0,0,1.82-.72,3.82,3.82,0,0,0,.56-2.32v-.27a4.47,4.47,0,0,0-.57-2.58,2.13,2.13,0,0,0-1.83-.77,1.84,1.84,0,0,0-1.65.88,4.59,4.59,0,0,0-.57,2.49,4.39,4.39,0,0,0,.57,2.46A1.9,1.9,0,0,0,265.25,410.88Z" transform="translate(0 -10.22)"/><path class="cls-2" d="M277.68,407.54a4.87,4.87,0,0,1-1,3.25,3.82,3.82,0,0,1-4.68.63,3.41,3.41,0,0,1-1.3-1.54,5.52,5.52,0,0,1-.46-2.34,4.83,4.83,0,0,1,1-3.24,3.42,3.42,0,0,1,2.74-1.16,3.34,3.34,0,0,1,2.7,1.19A4.8,4.8,0,0,1,277.68,407.54Zm-6.16,0a4.13,4.13,0,0,0,.62,2.48,2.11,2.11,0,0,0,1.82.86,2.15,2.15,0,0,0,1.83-.85,4.16,4.16,0,0,0,.62-2.49,4.06,4.06,0,0,0-.62-2.46,2.41,2.41,0,0,0-3.66,0A4.16,4.16,0,0,0,271.52,407.54Z" transform="translate(0 -10.22)"/><path class="cls-2" d="M285.48,412a3.36,3.36,0,0,1-2.72-1.13,4.85,4.85,0,0,1-1-3.22,5,5,0,0,1,1-3.3,3.48,3.48,0,0,1,2.79-1.16,5.18,5.18,0,0,1,1.17.13,3.67,3.67,0,0,1,.91.31l-.37,1.1a5.46,5.46,0,0,0-.89-.29,4,4,0,0,0-.85-.11c-1.64,0-2.46,1.1-2.46,3.31a4.09,4.09,0,0,0,.6,2.4,2,2,0,0,0,1.78.84,5.16,5.16,0,0,0,2.08-.46v1.14A4.23,4.23,0,0,1,285.48,412Z" transform="translate(0 -10.22)"/><path class="cls-2" d="M292.11,412a3.63,3.63,0,0,1-2.83-1.14,4.56,4.56,0,0,1-1-3.19,5.13,5.13,0,0,1,1-3.27,3.13,3.13,0,0,1,2.59-1.21,3,3,0,0,1,2.41,1.05,4.17,4.17,0,0,1,.88,2.78v.81h-5.57a3.4,3.4,0,0,0,.72,2.27,2.42,2.42,0,0,0,1.92.78,6.2,6.2,0,0,0,2.59-.58v1.15a6.73,6.73,0,0,1-1.23.43A7.09,7.09,0,0,1,292.11,412Zm-.33-7.73a2,2,0,0,0-1.56.67,3.2,3.2,0,0,0-.68,1.84h4.23a2.88,2.88,0,0,0-.52-1.86A1.74,1.74,0,0,0,291.78,404.22Z" transform="translate(0 -10.22)"/><path class="cls-2" d="M301.39,411.8l-.24-1.21h-.06a2.93,2.93,0,0,1-2.71,1.36,2.62,2.62,0,0,1-1.89-.65,2.45,2.45,0,0,1-.68-1.85q0-2.58,3.92-2.7l1.37-.05v-.53a2.23,2.23,0,0,0-.4-1.47,1.65,1.65,0,0,0-1.32-.48,5.17,5.17,0,0,0-2.28.65l-.38-1a5.89,5.89,0,0,1,1.31-.53,5.41,5.41,0,0,1,1.43-.19,3,3,0,0,1,2.14.67,2.88,2.88,0,0,1,.7,2.16v5.81Zm-2.77-.91a2.4,2.4,0,0,0,1.8-.66,2.49,2.49,0,0,0,.66-1.85v-.76l-1.23.05a4.36,4.36,0,0,0-2.11.48,1.45,1.45,0,0,0-.64,1.31,1.37,1.37,0,0,0,.4,1.07A1.62,1.62,0,0,0,298.62,410.89Z" transform="translate(0 -10.22)"/><path class="cls-2" d="M307.76,403.14a4.78,4.78,0,0,1,1,.09l-.17,1.2a3.91,3.91,0,0,0-.89-.12,2.13,2.13,0,0,0-1.68.84,3.17,3.17,0,0,0-.69,2.09v4.56h-1.23v-8.5h1l.14,1.57h.06a3.65,3.65,0,0,1,1.09-1.28A2.33,2.33,0,0,1,307.76,403.14Z" transform="translate(0 -10.22)"/><path class="cls-2" d="M314.46,411.8l-.24-1.21h-.06a2.93,2.93,0,0,1-2.71,1.36,2.62,2.62,0,0,1-1.89-.65,2.45,2.45,0,0,1-.68-1.85q0-2.58,3.92-2.7l1.37-.05v-.53a2.17,2.17,0,0,0-.41-1.47,1.63,1.63,0,0,0-1.31-.48,5.17,5.17,0,0,0-2.28.65l-.38-1a5.89,5.89,0,0,1,1.31-.53,5.35,5.35,0,0,1,1.43-.19,3,3,0,0,1,2.14.67,2.88,2.88,0,0,1,.7,2.16v5.81Zm-2.77-.91a2.4,2.4,0,0,0,1.8-.66,2.49,2.49,0,0,0,.65-1.85v-.76l-1.22.05a4.33,4.33,0,0,0-2.11.48,1.45,1.45,0,0,0-.64,1.31,1.37,1.37,0,0,0,.4,1.07A1.62,1.62,0,0,0,311.69,410.89Zm-.28-8.91c.23-.32.49-.71.76-1.17s.49-.85.65-1.18h1.49v.16a12.19,12.19,0,0,1-1,1.24,11.12,11.12,0,0,1-1.12,1.14h-.81Z" transform="translate(0 -10.22)"/><g id="Ellipse_1_copy_6-3" data-name="Ellipse 1 copy 6"><path class="cls-5" d="M115.86,386c-19.76-21.79-39.23-6.5-42.08-4.95s11.71-3.13,17.22,8.08c5.07,10.33-4.94,22.23,2.78,31.6,4.85,5.88,15,10.85,24.79,1.39C127.07,413.85,124.06,395,115.86,386Z" transform="translate(0 -10.22)"/></g><g id="Ellipse_1_copy_7-3" data-name="Ellipse 1 copy 7"><path class="cls-6" d="M90.24,391c-.21-3.24-2.11,12-14.59,12.23-11.5.25-18.05-13.86-29.8-10.8-7.37,1.92-16.15,9.05-11.71,21.91C38,425.54,56.35,430.76,68,427.13,96.07,418.38,90.44,394.27,90.24,391Z" transform="translate(0 -10.22)"/></g><g id="Ellipse_1_copy_8-3" data-name="Ellipse 1 copy 8"><path class="cls-7" d="M83.9,342c-11.43-3-26,9.29-29.47,21C46,391.23,69.15,400,72,401.64s-8.73-8.41-2-18.93c6.2-9.69,21.55-7.26,25.57-18.73C98.05,356.78,97,345.51,83.9,342Z" transform="translate(0 -10.22)"/></g><path class="cls-8" d="M447.7,148.39a8.08,8.08,0,0,1-2.32,6.22,9.3,9.3,0,0,1-6.58,2.16h-3.65v11.56h-1.64v-28h5.77Q447.7,140.35,447.7,148.39Zm-12.55,6.7h3.24q4,0,5.76-1.56t1.78-5.07a6.24,6.24,0,0,0-1.68-4.79q-1.68-1.56-5.19-1.56h-3.91Z" transform="translate(0 -10.22)"/><path class="cls-8" d="M465.71,168.33H452.83v-28h12.88v1.8H454.47v10.58h10.62v1.8H454.47v12h11.24Z" transform="translate(0 -10.22)"/><path class="cls-8" d="M477.2,168.33h-1.66V142.19h-7.66v-1.84h17v1.84H477.2Z" transform="translate(0 -10.22)"/><path class="cls-8" d="M499.63,144.89a5.62,5.62,0,0,0-4.92,2.51,12.22,12.22,0,0,0-1.74,7q0,9.36,6.66,9.36a19.88,19.88,0,0,0,6.76-1.48v5a17.83,17.83,0,0,1-7.29,1.44q-5.79,0-8.85-3.71t-3.07-10.63a18.1,18.1,0,0,1,1.51-7.65,11.24,11.24,0,0,1,4.32-5,12.28,12.28,0,0,1,6.62-1.75,17,17,0,0,1,7.76,2l-1.81,4.82a28,28,0,0,0-3-1.3A8.48,8.48,0,0,0,499.63,144.89Z" transform="translate(0 -10.22)"/><path class="cls-8" d="M536.86,154.3q0,7-3.27,10.69t-9.36,3.73q-6.11,0-9.36-3.73t-3.27-10.72q0-7,3.28-10.68t9.38-3.68q6.12,0,9.36,3.71T536.86,154.3Zm-19.36,0c0,3.13.56,5.48,1.68,7.07a5.8,5.8,0,0,0,5.05,2.37q6.74,0,6.73-9.44t-6.7-9.45a5.83,5.83,0,0,0-5.06,2.38Q517.51,149.62,517.5,154.3Z" transform="translate(0 -10.22)"/><path class="cls-8" d="M554.33,168.33l-6.39-22h-.16q.35,6.7.34,8.94v13h-5v-28h7.65l6.28,21.4h.11l6.66-21.4h7.66v28h-5.25V155.09q0-.94,0-2.16t.25-6.51h-.17l-6.84,21.91Z" transform="translate(0 -10.22)"/><path class="cls-8" d="M597.2,149.08q0,4.51-2.67,6.91t-7.62,2.39H584.5v10h-5.62v-28h8.47c3.22,0,5.66.73,7.34,2.19S597.2,146.18,597.2,149.08Zm-12.7,4.44h1.85a5.91,5.91,0,0,0,3.88-1.08,3.88,3.88,0,0,0,1.29-3.15,4,4,0,0,0-1.08-3.08,4.83,4.83,0,0,0-3.38-1H584.5Z" transform="translate(0 -10.22)"/><path class="cls-9" d="M505.29,179.68v6.46a2.59,2.59,0,0,0,.56,1.82,2.27,2.27,0,0,0,1.74.6,2.84,2.84,0,0,0,2.29-.85,4.32,4.32,0,0,0,.72-2.79v-5.24h1.51v10h-1.24l-.22-1.33h-.08a3.09,3.09,0,0,1-1.29,1.13,4.36,4.36,0,0,1-1.88.39,3.79,3.79,0,0,1-2.73-.87,3.67,3.67,0,0,1-.91-2.76v-6.52Z" transform="translate(0 -10.22)"/><path class="cls-9" d="M519.63,180.85h-2.54v8.79h-1.51v-8.79h-1.79v-.68l1.79-.55v-.55q0-3.67,3.21-3.67a6.66,6.66,0,0,1,1.86.31l-.39,1.21a5.3,5.3,0,0,0-1.5-.28,1.44,1.44,0,0,0-1.26.57,3.2,3.2,0,0,0-.41,1.82v.65h2.54Z" transform="translate(0 -10.22)"/><path class="cls-9" d="M525.25,189.83a4.25,4.25,0,0,1-3.35-1.34,5.4,5.4,0,0,1-1.19-3.76,5.68,5.68,0,0,1,1.2-3.87,4.35,4.35,0,0,1,3.44-1.36,7,7,0,0,1,1.44.15,4.52,4.52,0,0,1,1.13.37l-.47,1.28a5.57,5.57,0,0,0-1.09-.33,4.75,4.75,0,0,0-1.05-.14c-2,0-3,1.29-3,3.88a4.6,4.6,0,0,0,.75,2.82,2.57,2.57,0,0,0,2.19,1,6.65,6.65,0,0,0,2.56-.54v1.34A5.51,5.51,0,0,1,525.25,189.83Z" transform="translate(0 -10.22)"/><g id="Ellipse_1_copy_6-4" data-name="Ellipse 1 copy 6"><path class="cls-5" d="M561.18,72.37c-24.36-25.54-48.37-7.63-51.89-5.81s14.45-3.67,21.24,9.47c6.26,12.11-6.09,26.05,3.44,37,6,6.9,18.51,12.71,30.56,1.63C575,105.05,571.3,83,561.18,72.37Z" transform="translate(0 -10.22)"/></g><g id="Ellipse_1_copy_7-4" data-name="Ellipse 1 copy 7"><path class="cls-6" d="M529.59,78.31c-.25-3.8-2.6,14-18,14.32-14.18.29-22.25-16.23-36.74-12.65-9.1,2.25-19.93,10.61-14.45,25.68,4.77,13.1,27.39,19.21,41.76,15C536.79,110.37,529.84,82.11,529.59,78.31Z" transform="translate(0 -10.22)"/></g><g id="Ellipse_1_copy_8-4" data-name="Ellipse 1 copy 8"><path class="cls-7" d="M521.78,20.88c-14.09-3.54-32,10.9-36.35,24.62C475.05,78.55,503.59,88.83,507,90.75s-10.77-9.86-2.46-22.19c7.66-11.35,26.58-8.51,31.54-22C539.23,38.18,538,25,521.78,20.88Z" transform="translate(0 -10.22)"/></g><path class="cls-2" d="M447.7,368.39a8.08,8.08,0,0,1-2.32,6.22,9.3,9.3,0,0,1-6.58,2.16h-3.65v11.56h-1.64v-28h5.77Q447.7,360.35,447.7,368.39Zm-12.55,6.7h3.24q4,0,5.76-1.56t1.78-5.07a6.24,6.24,0,0,0-1.68-4.79q-1.68-1.56-5.19-1.56h-3.91Z" transform="translate(0 -10.22)"/><path class="cls-2" d="M465.71,388.33H452.83v-28h12.88v1.8H454.47v10.58h10.62v1.8H454.47v12h11.24Z" transform="translate(0 -10.22)"/><path class="cls-2" d="M477.2,388.33h-1.66V362.19h-7.66v-1.84h17v1.84H477.2Z" transform="translate(0 -10.22)"/><path class="cls-2" d="M499.63,364.89a5.62,5.62,0,0,0-4.92,2.51,12.22,12.22,0,0,0-1.74,7q0,9.36,6.66,9.36a19.88,19.88,0,0,0,6.76-1.48v5a17.83,17.83,0,0,1-7.29,1.44q-5.79,0-8.85-3.71t-3.07-10.63a18.1,18.1,0,0,1,1.51-7.65,11.24,11.24,0,0,1,4.32-5,12.28,12.28,0,0,1,6.62-1.75,17,17,0,0,1,7.76,2l-1.81,4.82a28,28,0,0,0-3-1.3A8.48,8.48,0,0,0,499.63,364.89Z" transform="translate(0 -10.22)"/><path class="cls-2" d="M536.86,374.3q0,7-3.27,10.69t-9.36,3.73q-6.11,0-9.36-3.73t-3.27-10.72q0-7,3.28-10.68t9.38-3.68q6.12,0,9.36,3.71T536.86,374.3Zm-19.36,0c0,3.13.56,5.48,1.68,7.07a5.8,5.8,0,0,0,5.05,2.37q6.74,0,6.73-9.44t-6.7-9.45a5.83,5.83,0,0,0-5.06,2.38Q517.51,369.62,517.5,374.3Z" transform="translate(0 -10.22)"/><path class="cls-2" d="M554.33,388.33l-6.39-21.95h-.16q.35,6.71.34,8.94v13h-5v-28h7.65l6.28,21.4h.11l6.66-21.4h7.66v28h-5.25V375.09q0-.94,0-2.16t.25-6.51h-.17l-6.84,21.91Z" transform="translate(0 -10.22)"/><path class="cls-2" d="M597.2,369.08q0,4.51-2.67,6.91t-7.62,2.39H584.5v9.95h-5.62v-28h8.47c3.22,0,5.66.73,7.34,2.19S597.2,366.18,597.2,369.08Zm-12.7,4.44h1.85a5.91,5.91,0,0,0,3.88-1.08,3.88,3.88,0,0,0,1.29-3.15,4,4,0,0,0-1.08-3.08,4.83,4.83,0,0,0-3.38-1H584.5Z" transform="translate(0 -10.22)"/><path class="cls-2" d="M505.29,399.68v6.46a2.59,2.59,0,0,0,.56,1.82,2.27,2.27,0,0,0,1.74.6,2.84,2.84,0,0,0,2.29-.85,4.32,4.32,0,0,0,.72-2.79v-5.24h1.51v10h-1.24l-.22-1.33h-.08a3.09,3.09,0,0,1-1.29,1.13,4.36,4.36,0,0,1-1.88.39,3.79,3.79,0,0,1-2.73-.87,3.67,3.67,0,0,1-.91-2.76v-6.52Z" transform="translate(0 -10.22)"/><path class="cls-2" d="M519.63,400.85h-2.54v8.79h-1.51v-8.79h-1.79v-.68l1.79-.55v-.55q0-3.68,3.21-3.67a6.66,6.66,0,0,1,1.86.31l-.39,1.21a5.3,5.3,0,0,0-1.5-.28,1.44,1.44,0,0,0-1.26.57,3.2,3.2,0,0,0-.41,1.82v.65h2.54Z" transform="translate(0 -10.22)"/><path class="cls-2" d="M525.25,409.83a4.25,4.25,0,0,1-3.35-1.34,5.4,5.4,0,0,1-1.19-3.76,5.68,5.68,0,0,1,1.2-3.87,4.35,4.35,0,0,1,3.44-1.36,7,7,0,0,1,1.44.15,4.52,4.52,0,0,1,1.13.37l-.47,1.28a5.57,5.57,0,0,0-1.09-.33,4.75,4.75,0,0,0-1.05-.14c-2,0-3,1.29-3,3.88a4.6,4.6,0,0,0,.75,2.82,2.57,2.57,0,0,0,2.19,1,6.65,6.65,0,0,0,2.56-.54v1.34A5.51,5.51,0,0,1,525.25,409.83Z" transform="translate(0 -10.22)"/><g id="Ellipse_1_copy_6-5" data-name="Ellipse 1 copy 6"><path class="cls-3" d="M561.18,292.37c-24.36-25.54-48.37-7.63-51.89-5.81s14.45-3.67,21.24,9.47c6.26,12.11-6.09,26.05,3.44,37,6,6.9,18.51,12.71,30.56,1.63C575,325.05,571.3,303,561.18,292.37Z" transform="translate(0 -10.22)"/></g><g id="Ellipse_1_copy_7-5" data-name="Ellipse 1 copy 7"><path class="cls-3" d="M529.59,298.31c-.25-3.8-2.6,14-18,14.32-14.18.29-22.25-16.23-36.74-12.65-9.1,2.25-19.93,10.61-14.45,25.68,4.77,13.1,27.39,19.21,41.76,15C536.79,330.37,529.84,302.11,529.59,298.31Z" transform="translate(0 -10.22)"/></g><g id="Ellipse_1_copy_8-5" data-name="Ellipse 1 copy 8"><path class="cls-3" d="M521.78,240.88c-14.09-3.54-32,10.9-36.35,24.62-10.38,33.05,18.16,43.33,21.61,45.25s-10.77-9.86-2.46-22.19c7.66-11.35,26.58-8.51,31.54-21.95C539.23,258.18,538,245,521.78,240.88Z" transform="translate(0 -10.22)"/></g><rect x="632.17" y="213.16" width="210" height="210"/><path d="M669.69,148.39a8.12,8.12,0,0,1-2.32,6.22,9.32,9.32,0,0,1-6.58,2.16h-3.65v11.56H655.5v-28h5.77Q669.69,140.35,669.69,148.39Zm-12.55,6.7h3.24q4,0,5.76-1.56t1.77-5.07a6.24,6.24,0,0,0-1.67-4.79q-1.68-1.56-5.2-1.56h-3.9Z" transform="translate(0 -10.22)"/><path d="M687.7,168.33H674.82v-28H687.7v1.8H676.46v10.58h10.61v1.8H676.46v12H687.7Z" transform="translate(0 -10.22)"/><path d="M699.19,168.33h-1.66V142.19h-7.67v-1.84h17v1.84h-7.66Z" transform="translate(0 -10.22)"/><path d="M721.61,144.89a5.62,5.62,0,0,0-4.91,2.51,12.22,12.22,0,0,0-1.74,7q0,9.36,6.65,9.36a19.93,19.93,0,0,0,6.77-1.48v5a17.86,17.86,0,0,1-7.29,1.44q-5.79,0-8.85-3.71t-3.07-10.63a18.26,18.26,0,0,1,1.5-7.65,11.33,11.33,0,0,1,4.33-5,12.26,12.26,0,0,1,6.61-1.75,17,17,0,0,1,7.77,2l-1.81,4.82a28.93,28.93,0,0,0-3-1.3A8.49,8.49,0,0,0,721.61,144.89Z" transform="translate(0 -10.22)"/><path d="M758.85,154.3q0,7-3.27,10.69t-9.36,3.73q-6.11,0-9.36-3.73t-3.27-10.72q0-7,3.27-10.68t9.39-3.68q6.12,0,9.36,3.71T758.85,154.3Zm-19.36,0c0,3.13.56,5.48,1.68,7.07a5.8,5.8,0,0,0,5.05,2.37q6.72,0,6.73-9.44t-6.7-9.45a5.83,5.83,0,0,0-5.06,2.38C740.05,148.82,739.49,151.18,739.49,154.3Z" transform="translate(0 -10.22)"/><path d="M776.32,168.33l-6.39-22h-.16q.35,6.7.34,8.94v13h-5v-28h7.65l6.28,21.4h.11l6.66-21.4h7.66v28H788.2V155.09q0-.94,0-2.16t.24-6.51h-.16l-6.84,21.91Z" transform="translate(0 -10.22)"/><path d="M819.19,149.08q0,4.51-2.68,6.91t-7.61,2.39h-2.41v10h-5.62v-28h8.47c3.22,0,5.66.73,7.34,2.19S819.19,146.18,819.19,149.08Zm-12.7,4.44h1.85a5.93,5.93,0,0,0,3.88-1.08,3.88,3.88,0,0,0,1.29-3.15,4,4,0,0,0-1.08-3.08,4.84,4.84,0,0,0-3.38-1h-2.56Z" transform="translate(0 -10.22)"/><path d="M727.28,179.68v6.46a2.59,2.59,0,0,0,.56,1.82,2.27,2.27,0,0,0,1.74.6,2.85,2.85,0,0,0,2.29-.85,4.32,4.32,0,0,0,.72-2.79v-5.24h1.51v10h-1.24l-.22-1.33h-.09a3.06,3.06,0,0,1-1.28,1.13,4.36,4.36,0,0,1-1.88.39,3.79,3.79,0,0,1-2.73-.87,3.67,3.67,0,0,1-.91-2.76v-6.52Z" transform="translate(0 -10.22)"/><path d="M741.62,180.85h-2.54v8.79h-1.51v-8.79h-1.79v-.68l1.79-.55v-.55q0-3.67,3.21-3.67a6.66,6.66,0,0,1,1.86.31l-.39,1.21a5.3,5.3,0,0,0-1.5-.28,1.44,1.44,0,0,0-1.26.57,3.12,3.12,0,0,0-.41,1.82v.65h2.54Z" transform="translate(0 -10.22)"/><path d="M747.24,189.83a4.25,4.25,0,0,1-3.35-1.34,5.4,5.4,0,0,1-1.19-3.76,5.68,5.68,0,0,1,1.2-3.87,4.35,4.35,0,0,1,3.44-1.36,7,7,0,0,1,1.44.15,4.66,4.66,0,0,1,1.13.37l-.47,1.28a5.79,5.79,0,0,0-1.09-.33,4.75,4.75,0,0,0-1.05-.14c-2,0-3,1.29-3,3.88a4.66,4.66,0,0,0,.74,2.82,2.6,2.6,0,0,0,2.2,1,6.69,6.69,0,0,0,2.56-.54v1.34A5.54,5.54,0,0,1,747.24,189.83Z" transform="translate(0 -10.22)"/><g id="Ellipse_1_copy_6-6" data-name="Ellipse 1 copy 6"><path class="cls-1" d="M783.17,72.37c-24.37-25.54-48.37-7.63-51.89-5.81s14.44-3.67,21.24,9.47c6.26,12.11-6.09,26.05,3.43,37,6,6.9,18.52,12.71,30.57,1.63C797,105.05,793.29,83,783.17,72.37Z" transform="translate(0 -10.22)"/></g><g id="Ellipse_1_copy_7-6" data-name="Ellipse 1 copy 7"><path class="cls-1" d="M751.58,78.31c-.25-3.8-2.6,14-18,14.32-14.18.29-22.26-16.23-36.74-12.65-9.1,2.25-19.93,10.61-14.45,25.68,4.77,13.1,27.39,19.21,41.76,15C758.78,110.37,751.83,82.11,751.58,78.31Z" transform="translate(0 -10.22)"/></g><g id="Ellipse_1_copy_8-6" data-name="Ellipse 1 copy 8"><path class="cls-1" d="M743.77,20.88c-14.1-3.54-32,10.9-36.35,24.62C697,78.55,725.58,88.83,729,90.75s-10.77-9.86-2.46-22.19c7.66-11.35,26.58-8.51,31.54-22C761.22,38.18,760,25,743.77,20.88Z" transform="translate(0 -10.22)"/></g><path class="cls-2" d="M669.69,368.39a8.12,8.12,0,0,1-2.32,6.22,9.32,9.32,0,0,1-6.58,2.16h-3.65v11.56H655.5v-28h5.77Q669.69,360.35,669.69,368.39Zm-12.55,6.7h3.24q4,0,5.76-1.56t1.77-5.07a6.24,6.24,0,0,0-1.67-4.79q-1.68-1.56-5.2-1.56h-3.9Z" transform="translate(0 -10.22)"/><path class="cls-2" d="M687.7,388.33H674.82v-28H687.7v1.8H676.46v10.58h10.61v1.8H676.46v12H687.7Z" transform="translate(0 -10.22)"/><path class="cls-2" d="M699.19,388.33h-1.66V362.19h-7.67v-1.84h17v1.84h-7.66Z" transform="translate(0 -10.22)"/><path class="cls-2" d="M721.61,364.89a5.62,5.62,0,0,0-4.91,2.51,12.22,12.22,0,0,0-1.74,7q0,9.36,6.65,9.36a19.93,19.93,0,0,0,6.77-1.48v5a17.86,17.86,0,0,1-7.29,1.44q-5.79,0-8.85-3.71t-3.07-10.63a18.26,18.26,0,0,1,1.5-7.65,11.33,11.33,0,0,1,4.33-5,12.26,12.26,0,0,1,6.61-1.75,17,17,0,0,1,7.77,2l-1.81,4.82a28.93,28.93,0,0,0-3-1.3A8.49,8.49,0,0,0,721.61,364.89Z" transform="translate(0 -10.22)"/><path class="cls-2" d="M758.85,374.3q0,7-3.27,10.69t-9.36,3.73q-6.11,0-9.36-3.73t-3.27-10.72q0-7,3.27-10.68t9.39-3.68q6.12,0,9.36,3.71T758.85,374.3Zm-19.36,0c0,3.13.56,5.48,1.68,7.07a5.8,5.8,0,0,0,5.05,2.37q6.72,0,6.73-9.44t-6.7-9.45a5.83,5.83,0,0,0-5.06,2.38C740.05,368.82,739.49,371.18,739.49,374.3Z" transform="translate(0 -10.22)"/><path class="cls-2" d="M776.32,388.33l-6.39-21.95h-.16q.35,6.71.34,8.94v13h-5v-28h7.65l6.28,21.4h.11l6.66-21.4h7.66v28H788.2V375.09q0-.94,0-2.16t.24-6.51h-.16l-6.84,21.91Z" transform="translate(0 -10.22)"/><path class="cls-2" d="M819.19,369.08q0,4.51-2.68,6.91t-7.61,2.39h-2.41v9.95h-5.62v-28h8.47c3.22,0,5.66.73,7.34,2.19S819.19,366.18,819.19,369.08Zm-12.7,4.44h1.85a5.93,5.93,0,0,0,3.88-1.08,3.88,3.88,0,0,0,1.29-3.15,4,4,0,0,0-1.08-3.08,4.84,4.84,0,0,0-3.38-1h-2.56Z" transform="translate(0 -10.22)"/><path class="cls-2" d="M727.28,399.68v6.46a2.59,2.59,0,0,0,.56,1.82,2.27,2.27,0,0,0,1.74.6,2.85,2.85,0,0,0,2.29-.85,4.32,4.32,0,0,0,.72-2.79v-5.24h1.51v10h-1.24l-.22-1.33h-.09a3.06,3.06,0,0,1-1.28,1.13,4.36,4.36,0,0,1-1.88.39,3.79,3.79,0,0,1-2.73-.87,3.67,3.67,0,0,1-.91-2.76v-6.52Z" transform="translate(0 -10.22)"/><path class="cls-2" d="M741.62,400.85h-2.54v8.79h-1.51v-8.79h-1.79v-.68l1.79-.55v-.55q0-3.68,3.21-3.67a6.66,6.66,0,0,1,1.86.31l-.39,1.21a5.3,5.3,0,0,0-1.5-.28,1.44,1.44,0,0,0-1.26.57,3.12,3.12,0,0,0-.41,1.82v.65h2.54Z" transform="translate(0 -10.22)"/><path class="cls-2" d="M747.24,409.83a4.25,4.25,0,0,1-3.35-1.34,5.4,5.4,0,0,1-1.19-3.76,5.68,5.68,0,0,1,1.2-3.87,4.35,4.35,0,0,1,3.44-1.36,7,7,0,0,1,1.44.15,4.66,4.66,0,0,1,1.13.37l-.47,1.28a5.79,5.79,0,0,0-1.09-.33,4.75,4.75,0,0,0-1.05-.14c-2,0-3,1.29-3,3.88a4.66,4.66,0,0,0,.74,2.82,2.6,2.6,0,0,0,2.2,1,6.69,6.69,0,0,0,2.56-.54v1.34A5.54,5.54,0,0,1,747.24,409.83Z" transform="translate(0 -10.22)"/><g id="Ellipse_1_copy_6-7" data-name="Ellipse 1 copy 6"><path class="cls-5" d="M783.17,292.37c-24.37-25.54-48.37-7.63-51.89-5.81s14.44-3.67,21.24,9.47c6.26,12.11-6.09,26.05,3.43,37,6,6.9,18.52,12.71,30.57,1.63C797,325.05,793.29,303,783.17,292.37Z" transform="translate(0 -10.22)"/></g><g id="Ellipse_1_copy_7-7" data-name="Ellipse 1 copy 7"><path class="cls-6" d="M751.58,298.31c-.25-3.8-2.6,14-18,14.32-14.18.29-22.26-16.23-36.74-12.65-9.1,2.25-19.93,10.61-14.45,25.68,4.77,13.1,27.39,19.21,41.76,15C758.78,330.37,751.83,302.11,751.58,298.31Z" transform="translate(0 -10.22)"/></g><g id="Ellipse_1_copy_8-7" data-name="Ellipse 1 copy 8"><path class="cls-7" d="M743.77,240.88c-14.1-3.54-32,10.9-36.35,24.62C697,298.55,725.58,308.83,729,310.75s-10.77-9.86-2.46-22.19c7.66-11.35,26.58-8.51,31.54-21.95C761.22,258.18,760,245,743.77,240.88Z" transform="translate(0 -10.22)"/></g></g><g id="Ellipse_1_copy_6-8" data-name="Ellipse 1 copy 6"><path class="cls-5" d="M115.86,54.61c-19.76-21.79-39.23-6.5-42.08-5S85.49,46.53,91,57.74c5.08,10.33-4.94,22.23,2.79,31.6,4.84,5.88,15,10.84,24.78,1.39C127.07,82.51,124.06,63.66,115.86,54.61Z" transform="translate(0 -10.22)"/></g><g id="Ellipse_1_copy_7-8" data-name="Ellipse 1 copy 7"><path class="cls-6" d="M90.24,59.68C90,56.44,88.13,71.63,75.65,71.9c-11.5.26-18.05-13.85-29.8-10.79C38.48,63,29.7,70.16,34.14,83,38,94.2,56.35,99.42,68,95.78,96.08,87,90.44,62.93,90.24,59.68Z" transform="translate(0 -10.22)"/></g><g id="Ellipse_1_copy_8-8" data-name="Ellipse 1 copy 8"><path class="cls-7" d="M83.9,10.69c-11.42-3-26,9.29-29.47,21C46,59.89,69.15,68.66,72,70.3s-8.73-8.41-2-18.93c6.21-9.69,21.55-7.26,25.57-18.73C98.06,25.44,97,14.17,83.9,10.69Z" transform="translate(0 -10.22)"/></g><path class="cls-8" d="M140.69,43.94a7.09,7.09,0,0,1-1.89,5.31,7.29,7.29,0,0,1-5.33,1.85h-3V61h-1.33V37.08h4.68Q140.69,37.08,140.69,43.94Zm-10.18,5.72h2.63c2.15,0,3.71-.44,4.67-1.33A5.65,5.65,0,0,0,139.25,44a5.47,5.47,0,0,0-1.36-4.09,5.81,5.81,0,0,0-4.21-1.34h-3.17Z" transform="translate(0 -10.22)"/><path class="cls-8" d="M154.22,61H143.78V37.08h10.44v1.54h-9.11v9h8.6v1.54h-8.6V59.43h9.11Z" transform="translate(0 -10.22)"/><path class="cls-8" d="M162.47,61h-1.35V38.65h-6.21V37.08h13.77v1.57h-6.21Z" transform="translate(0 -10.22)"/><path class="cls-8" d="M179.58,41a4.53,4.53,0,0,0-4,2.15,10.85,10.85,0,0,0-1.41,6q0,8,5.4,8a15.56,15.56,0,0,0,5.49-1.25v4.24a13.91,13.91,0,0,1-5.92,1.23A8.6,8.6,0,0,1,172,58.13c-1.65-2.11-2.48-5.13-2.48-9.08a16.1,16.1,0,0,1,1.22-6.52,9.47,9.47,0,0,1,3.51-4.3,9.61,9.61,0,0,1,5.36-1.49,13.34,13.34,0,0,1,6.3,1.68l-1.47,4.12A21.81,21.81,0,0,0,182,41.43,6.5,6.5,0,0,0,179.58,41Z" transform="translate(0 -10.22)"/><path class="cls-8" d="M208,49c0,3.95-.89,7-2.65,9.11a10.64,10.64,0,0,1-15.19,0c-1.76-2.12-2.65-5.17-2.65-9.14s.89-7,2.66-9.11,4.31-3.14,7.61-3.14,5.84,1,7.59,3.17S208,45,208,49Zm-15.7,0a10.85,10.85,0,0,0,1.36,6,4.62,4.62,0,0,0,4.09,2q5.46,0,5.46-8t-5.43-8.07a4.64,4.64,0,0,0-4.1,2A10.81,10.81,0,0,0,192.27,49Z" transform="translate(0 -10.22)"/><path class="cls-8" d="M220.33,61l-5.18-18.73H215q.28,5.72.28,7.62V61h-4.07V37.08h6.21l5.09,18.26h.09L228,37.08h6.21V61H230V49.66c0-.53,0-1.15,0-1.85s.08-2.54.19-5.55h-.13L224.5,61Z" transform="translate(0 -10.22)"/><path class="cls-8" d="M253.29,44.53a7.71,7.71,0,0,1-2.18,5.9,8.65,8.65,0,0,1-6.17,2H243V61h-4.57V37.08h6.88A8.56,8.56,0,0,1,251.25,39,7.21,7.21,0,0,1,253.29,44.53ZM243,48.32h1.5a4.68,4.68,0,0,0,3.15-.92,3.42,3.42,0,0,0,1-2.69,3.5,3.5,0,0,0-.88-2.63,3.78,3.78,0,0,0-2.74-.85H243Z" transform="translate(0 -10.22)"/><path class="cls-8" d="M273.65,37.08V52.53a9.69,9.69,0,0,1-1.07,4.64,7.22,7.22,0,0,1-3.08,3.06,10.17,10.17,0,0,1-4.77,1.06,8.59,8.59,0,0,1-6.44-2.36,8.87,8.87,0,0,1-2.3-6.46V37.08h4.55V51.7a6.59,6.59,0,0,0,1,4A3.94,3.94,0,0,0,264.85,57a3.86,3.86,0,0,0,3.25-1.3,6.64,6.64,0,0,0,1-4.07V37.08Z" transform="translate(0 -10.22)"/><path class="cls-8" d="M286,61h-4.56V41.3h-5.84V37.08h16.24V41.3H286Z" transform="translate(0 -10.22)"/><path class="cls-8" d="M306.36,61l-1.56-5.68H297L295.39,61h-4.91l7.59-24h5.58l7.62,24ZM303.71,51q-2.18-7.72-2.44-8.74c-.18-.67-.31-1.21-.39-1.6q-.48,2.1-2.78,10.34Z" transform="translate(0 -10.22)"/><path class="cls-8" d="M320.91,41a4.51,4.51,0,0,0-4,2.15,10.85,10.85,0,0,0-1.41,6q0,8,5.4,8a15.47,15.47,0,0,0,5.48-1.25v4.24a13.83,13.83,0,0,1-5.91,1.23,8.59,8.59,0,0,1-7.18-3.16c-1.66-2.11-2.49-5.13-2.49-9.08A16.27,16.27,0,0,1,312,42.53a9.18,9.18,0,0,1,8.88-5.79,13.31,13.31,0,0,1,6.29,1.68l-1.47,4.12a20.27,20.27,0,0,0-2.43-1.11A6.49,6.49,0,0,0,320.91,41ZM323.17,65a3.74,3.74,0,0,1-1.11,3,5.26,5.26,0,0,1-3.43.93,6.78,6.78,0,0,1-2.15-.34V65.91a10.13,10.13,0,0,0,1.06.23,6.2,6.2,0,0,0,1,.11c.71,0,1.06-.33,1.06-1,0-.9-.81-1.49-2.44-1.76L318.35,61h2.84l-.4,1a3.75,3.75,0,0,1,1.73,1.21A2.92,2.92,0,0,1,323.17,65Z" transform="translate(0 -10.22)"/><path class="cls-8" d="M342.93,61l-1.56-5.68h-7.84L332,61h-4.91l7.59-24h5.58l7.62,24Zm-7.88-27.5a1.21,1.21,0,0,0-.88.43,2.71,2.71,0,0,0-.61,1.31h-2.19a6.64,6.64,0,0,1,1.21-3.7,3.35,3.35,0,0,1,2.79-1.34,2.75,2.75,0,0,1,1.18.27c.39.18.77.37,1.15.58s.75.41,1.11.58a2.43,2.43,0,0,0,1.08.27,1.25,1.25,0,0,0,.87-.43,2.54,2.54,0,0,0,.61-1.31h2.2a6.57,6.57,0,0,1-1.23,3.71,3.37,3.37,0,0,1-2.78,1.34,2.78,2.78,0,0,1-1.18-.27c-.39-.18-.77-.37-1.15-.59s-.75-.4-1.11-.58A2.39,2.39,0,0,0,335.05,33.46ZM340.28,51q-2.16-7.72-2.43-8.74c-.18-.67-.31-1.21-.39-1.6Q337,42.79,334.68,51Z" transform="translate(0 -10.22)"/><path class="cls-8" d="M368.87,49q0,5.92-2.64,9.11a10.64,10.64,0,0,1-15.19,0c-1.76-2.12-2.65-5.17-2.65-9.14s.89-7,2.66-9.11,4.31-3.14,7.61-3.14,5.84,1,7.59,3.17S368.87,45,368.87,49Zm-15.69,0a10.85,10.85,0,0,0,1.36,6,4.62,4.62,0,0,0,4.09,2q5.46,0,5.46-8t-5.43-8.07a4.64,4.64,0,0,0-4.1,2A10.81,10.81,0,0,0,353.18,49Z" transform="translate(0 -10.22)"/><path class="cls-9" d="M130.53,72v5.52A2.29,2.29,0,0,0,131,79a1.79,1.79,0,0,0,1.41.52,2.28,2.28,0,0,0,1.86-.73,3.85,3.85,0,0,0,.58-2.39V72h1.23v8.51h-1l-.18-1.14h-.07a2.47,2.47,0,0,1-1,1,3.44,3.44,0,0,1-1.53.33,3,3,0,0,1-2.21-.73,3.26,3.26,0,0,1-.73-2.36V72Z" transform="translate(0 -10.22)"/><path class="cls-9" d="M143.44,80.46V75a2.28,2.28,0,0,0-.45-1.55,1.76,1.76,0,0,0-1.41-.52,2.23,2.23,0,0,0-1.86.73,3.73,3.73,0,0,0-.59,2.38v4.46H137.9V72h1l.2,1.17h.06a2.55,2.55,0,0,1,1.05-1,3.29,3.29,0,0,1,1.51-.34,3,3,0,0,1,2.21.74,3.25,3.25,0,0,1,.73,2.37v5.55Z" transform="translate(0 -10.22)"/><path class="cls-9" d="M146.32,69.65a.89.89,0,0,1,.21-.65.73.73,0,0,1,.51-.2.69.69,0,0,1,.51.21.83.83,0,0,1,.22.64.85.85,0,0,1-.22.65.72.72,0,0,1-1,0A.89.89,0,0,1,146.32,69.65Zm1.33,10.81h-1.23V72h1.23Z" transform="translate(0 -10.22)"/><path class="cls-9" d="M151.26,80.46,148.19,72h1.32l1.74,5a23,23,0,0,1,.69,2.29H152c.06-.27.23-.84.52-1.7s.93-2.74,1.93-5.64h1.32l-3.07,8.51Z" transform="translate(0 -10.22)"/><path class="cls-9" d="M159.73,80.61a3.6,3.6,0,0,1-2.83-1.15,4.56,4.56,0,0,1-1-3.18,5.13,5.13,0,0,1,1-3.27,3.15,3.15,0,0,1,2.59-1.21,3,3,0,0,1,2.41,1,4.17,4.17,0,0,1,.89,2.77v.82h-5.58a3.51,3.51,0,0,0,.72,2.27,2.43,2.43,0,0,0,1.92.78,6.14,6.14,0,0,0,2.59-.58v1.15a6.25,6.25,0,0,1-1.23.43A7,7,0,0,1,159.73,80.61Zm-.33-7.73a2,2,0,0,0-1.56.66,3.26,3.26,0,0,0-.68,1.85h4.23a2.88,2.88,0,0,0-.52-1.86A1.74,1.74,0,0,0,159.4,72.88Z" transform="translate(0 -10.22)"/><path class="cls-9" d="M167.73,71.8a4.78,4.78,0,0,1,1,.09l-.17,1.2a3.91,3.91,0,0,0-.89-.12,2.13,2.13,0,0,0-1.68.84,3.18,3.18,0,0,0-.7,2.09v4.56H164V72h1l.14,1.58h.06a3.65,3.65,0,0,1,1.09-1.28A2.33,2.33,0,0,1,167.73,71.8Z" transform="translate(0 -10.22)"/><path class="cls-9" d="M174.67,78.14a2.17,2.17,0,0,1-.84,1.83,3.81,3.81,0,0,1-2.36.64,5,5,0,0,1-2.51-.53v-1.2a5.91,5.91,0,0,0,1.25.49,5,5,0,0,0,1.29.18,2.88,2.88,0,0,0,1.48-.32,1.08,1.08,0,0,0,.51-1,1.06,1.06,0,0,0-.41-.85,6,6,0,0,0-1.59-.84,8.14,8.14,0,0,1-1.61-.77,2.28,2.28,0,0,1-.71-.75,2.08,2.08,0,0,1-.23-1,2,2,0,0,1,.8-1.64,3.62,3.62,0,0,1,2.21-.6,6.21,6.21,0,0,1,2.55.56l-.43,1a5.49,5.49,0,0,0-2.21-.53,2.43,2.43,0,0,0-1.31.28.91.91,0,0,0-.45.8,1,1,0,0,0,.17.58,1.7,1.7,0,0,0,.54.46,11.33,11.33,0,0,0,1.41.62,5.36,5.36,0,0,1,1.95,1.11A2,2,0,0,1,174.67,78.14Z" transform="translate(0 -10.22)"/><path class="cls-9" d="M175.81,69.65A.89.89,0,0,1,176,69a.71.71,0,0,1,.51-.2A.69.69,0,0,1,177,69a.87.87,0,0,1,.22.64.89.89,0,0,1-.22.65.69.69,0,0,1-.51.21.68.68,0,0,1-.51-.21A.89.89,0,0,1,175.81,69.65Zm1.33,10.81h-1.23V72h1.23Z" transform="translate(0 -10.22)"/><path class="cls-9" d="M184.49,79.32h-.07a2.83,2.83,0,0,1-2.54,1.29,3,3,0,0,1-2.47-1.14,5.18,5.18,0,0,1-.88-3.24,5.32,5.32,0,0,1,.89-3.27,3.18,3.18,0,0,1,5,.1h.09l-.05-.62,0-.59V68.39h1.23V80.46h-1Zm-2.45.22a2.19,2.19,0,0,0,1.82-.72,3.82,3.82,0,0,0,.56-2.32v-.27a4.43,4.43,0,0,0-.57-2.58,2.13,2.13,0,0,0-1.83-.77,1.84,1.84,0,0,0-1.65.88,4.57,4.57,0,0,0-.57,2.49,4.33,4.33,0,0,0,.57,2.45A1.88,1.88,0,0,0,182,79.54Z" transform="translate(0 -10.22)"/><path class="cls-9" d="M192.47,80.46l-.25-1.21h-.06a3.45,3.45,0,0,1-1.2,1.08,3.57,3.57,0,0,1-1.51.28,2.58,2.58,0,0,1-1.88-.65,2.41,2.41,0,0,1-.69-1.85q0-2.58,3.92-2.7l1.38,0v-.53a2.22,2.22,0,0,0-.41-1.47,1.63,1.63,0,0,0-1.31-.48,5.17,5.17,0,0,0-2.29.65l-.38-1A6.09,6.09,0,0,1,189.1,72a5.41,5.41,0,0,1,1.43-.19,3,3,0,0,1,2.15.67,2.92,2.92,0,0,1,.69,2.16v5.81Zm-2.77-.91a2.43,2.43,0,0,0,1.8-.66,2.53,2.53,0,0,0,.65-1.85v-.76l-1.23,0a4.32,4.32,0,0,0-2.1.48,1.44,1.44,0,0,0-.65,1.31,1.37,1.37,0,0,0,.4,1.07A1.65,1.65,0,0,0,189.7,79.55Z" transform="translate(0 -10.22)"/><path class="cls-9" d="M200.65,79.32h-.07A2.83,2.83,0,0,1,198,80.61a3,3,0,0,1-2.47-1.14,5.25,5.25,0,0,1-.88-3.24,5.32,5.32,0,0,1,.89-3.27,3.18,3.18,0,0,1,5,.1h.1l-.06-.62,0-.59V68.39h1.23V80.46h-1Zm-2.45.22a2.17,2.17,0,0,0,1.82-.72,3.75,3.75,0,0,0,.56-2.32v-.27a4.43,4.43,0,0,0-.57-2.58,2.13,2.13,0,0,0-1.83-.77,1.86,1.86,0,0,0-1.65.88,4.57,4.57,0,0,0-.57,2.49,4.33,4.33,0,0,0,.57,2.45A1.89,1.89,0,0,0,198.2,79.54Z" transform="translate(0 -10.22)"/><path class="cls-9" d="M207.07,80.61a3.6,3.6,0,0,1-2.83-1.15,4.56,4.56,0,0,1-1-3.18,5.08,5.08,0,0,1,1-3.27,3.11,3.11,0,0,1,2.58-1.21,3,3,0,0,1,2.41,1,4.17,4.17,0,0,1,.89,2.77v.82h-5.58a3.51,3.51,0,0,0,.72,2.27,2.43,2.43,0,0,0,1.92.78,6.14,6.14,0,0,0,2.59-.58v1.15a6.25,6.25,0,0,1-1.23.43A7,7,0,0,1,207.07,80.61Zm-.33-7.73a2,2,0,0,0-1.56.66,3.26,3.26,0,0,0-.68,1.85h4.23a2.94,2.94,0,0,0-.51-1.86A1.77,1.77,0,0,0,206.74,72.88Z" transform="translate(0 -10.22)"/><path class="cls-9" d="M218.2,73h-2.06v7.5h-1.23V73h-1.44v-.59l1.44-.46v-.48c0-2.08.87-3.13,2.61-3.13a5.19,5.19,0,0,1,1.51.27l-.32,1a3.89,3.89,0,0,0-1.21-.24,1.17,1.17,0,0,0-1,.49,2.81,2.81,0,0,0-.33,1.55V72h2.06Z" transform="translate(0 -10.22)"/><path class="cls-9" d="M222.34,80.61a3.6,3.6,0,0,1-2.83-1.15,4.51,4.51,0,0,1-1-3.18,5.13,5.13,0,0,1,1-3.27A3.13,3.13,0,0,1,222,71.8a3,3,0,0,1,2.41,1,4.16,4.16,0,0,1,.88,2.77v.82h-5.57a3.4,3.4,0,0,0,.72,2.27,2.4,2.4,0,0,0,1.92.78,6.2,6.2,0,0,0,2.59-.58v1.15a6.73,6.73,0,0,1-1.23.43A7.09,7.09,0,0,1,222.34,80.61ZM222,72.88a2,2,0,0,0-1.56.66,3.19,3.19,0,0,0-.68,1.85H224a2.88,2.88,0,0,0-.52-1.86A1.75,1.75,0,0,0,222,72.88Z" transform="translate(0 -10.22)"/><path class="cls-9" d="M232.15,79.32h-.06a2.85,2.85,0,0,1-2.54,1.29,3,3,0,0,1-2.47-1.14,5.18,5.18,0,0,1-.89-3.24,5.32,5.32,0,0,1,.89-3.27,2.93,2.93,0,0,1,2.47-1.16,2.88,2.88,0,0,1,2.52,1.26h.1l0-.62,0-.59V68.39h1.22V80.46h-1Zm-2.45.22a2.17,2.17,0,0,0,1.82-.72,3.75,3.75,0,0,0,.57-2.32v-.27a4.35,4.35,0,0,0-.58-2.58,2.13,2.13,0,0,0-1.82-.77,1.84,1.84,0,0,0-1.65.88,4.57,4.57,0,0,0-.57,2.49A4.33,4.33,0,0,0,228,78.7,1.89,1.89,0,0,0,229.7,79.54Z" transform="translate(0 -10.22)"/><path class="cls-9" d="M238.57,80.61a3.61,3.61,0,0,1-2.83-1.15,4.56,4.56,0,0,1-1-3.18,5.13,5.13,0,0,1,1-3.27,3.12,3.12,0,0,1,2.59-1.21,3,3,0,0,1,2.4,1,4.17,4.17,0,0,1,.89,2.77v.82H236a3.51,3.51,0,0,0,.72,2.27,2.44,2.44,0,0,0,1.93.78,6.13,6.13,0,0,0,2.58-.58v1.15a6.25,6.25,0,0,1-1.23.43A7,7,0,0,1,238.57,80.61Zm-.33-7.73a2,2,0,0,0-1.55.66,3.19,3.19,0,0,0-.69,1.85h4.23a2.94,2.94,0,0,0-.51-1.86A1.77,1.77,0,0,0,238.24,72.88Z" transform="translate(0 -10.22)"/><path class="cls-9" d="M246.57,71.8a4.71,4.71,0,0,1,1,.09l-.17,1.2a3.83,3.83,0,0,0-.88-.12,2.1,2.1,0,0,0-1.68.84,3.12,3.12,0,0,0-.7,2.09v4.56h-1.23V72h1l.14,1.58h.06a3.76,3.76,0,0,1,1.09-1.28A2.35,2.35,0,0,1,246.57,71.8Z" transform="translate(0 -10.22)"/><path class="cls-9" d="M253.27,80.46,253,79.25H253a3.38,3.38,0,0,1-1.21,1.08,3.49,3.49,0,0,1-1.5.28,2.58,2.58,0,0,1-1.88-.65,2.41,2.41,0,0,1-.69-1.85q0-2.58,3.92-2.7l1.38,0v-.53a2.22,2.22,0,0,0-.41-1.47,1.64,1.64,0,0,0-1.31-.48,5.17,5.17,0,0,0-2.29.65l-.38-1a6.09,6.09,0,0,1,1.31-.53,5.41,5.41,0,0,1,1.43-.19,3,3,0,0,1,2.15.67,2.92,2.92,0,0,1,.69,2.16v5.81Zm-2.76-.91a2.39,2.39,0,0,0,1.79-.66A2.49,2.49,0,0,0,253,77v-.76l-1.23,0a4.36,4.36,0,0,0-2.11.48,1.45,1.45,0,0,0-.64,1.31,1.37,1.37,0,0,0,.4,1.07A1.63,1.63,0,0,0,250.51,79.55Z" transform="translate(0 -10.22)"/><path class="cls-9" d="M257.18,80.46H256V68.39h1.23Z" transform="translate(0 -10.22)"/><path class="cls-9" d="M267.7,79.32h-.07a2.83,2.83,0,0,1-2.54,1.29,3,3,0,0,1-2.47-1.14,5.25,5.25,0,0,1-.88-3.24,5.32,5.32,0,0,1,.89-3.27,3.18,3.18,0,0,1,5,.1h.09l0-.62,0-.59V68.39h1.23V80.46h-1Zm-2.45.22a2.19,2.19,0,0,0,1.82-.72,3.82,3.82,0,0,0,.56-2.32v-.27a4.43,4.43,0,0,0-.57-2.58,2.13,2.13,0,0,0-1.83-.77,1.84,1.84,0,0,0-1.65.88,4.57,4.57,0,0,0-.57,2.49,4.33,4.33,0,0,0,.57,2.45A1.88,1.88,0,0,0,265.25,79.54Z" transform="translate(0 -10.22)"/><path class="cls-9" d="M277.68,76.2a4.89,4.89,0,0,1-1,3.25,3.46,3.46,0,0,1-2.76,1.16,3.55,3.55,0,0,1-1.92-.53,3.47,3.47,0,0,1-1.3-1.54,5.52,5.52,0,0,1-.46-2.34,4.83,4.83,0,0,1,1-3.24A3.42,3.42,0,0,1,274,71.8,3.33,3.33,0,0,1,276.68,73,4.8,4.8,0,0,1,277.68,76.2Zm-6.16,0a4.2,4.2,0,0,0,.62,2.48,2.11,2.11,0,0,0,1.82.86,2.13,2.13,0,0,0,1.83-.85,4.16,4.16,0,0,0,.63-2.49,4.06,4.06,0,0,0-.63-2.46,2.41,2.41,0,0,0-3.66,0A4.16,4.16,0,0,0,271.52,76.2Z" transform="translate(0 -10.22)"/><path class="cls-9" d="M285.48,80.61a3.39,3.39,0,0,1-2.72-1.13,4.85,4.85,0,0,1-1-3.22,5,5,0,0,1,1-3.3,3.44,3.44,0,0,1,2.78-1.16,5.18,5.18,0,0,1,1.17.13,3.92,3.92,0,0,1,.92.31l-.38,1.1a5.46,5.46,0,0,0-.89-.29,4,4,0,0,0-.85-.11c-1.64,0-2.46,1.1-2.46,3.31a4.09,4.09,0,0,0,.6,2.4,2.05,2.05,0,0,0,1.78.84,5.16,5.16,0,0,0,2.08-.46v1.14A4.21,4.21,0,0,1,285.48,80.61Z" transform="translate(0 -10.22)"/><path class="cls-9" d="M292.11,80.61a3.6,3.6,0,0,1-2.83-1.15,4.56,4.56,0,0,1-1-3.18,5.13,5.13,0,0,1,1-3.27,3.15,3.15,0,0,1,2.59-1.21,3,3,0,0,1,2.41,1,4.17,4.17,0,0,1,.89,2.77v.82h-5.58a3.51,3.51,0,0,0,.72,2.27,2.43,2.43,0,0,0,1.92.78,6.17,6.17,0,0,0,2.59-.58v1.15a6.73,6.73,0,0,1-1.23.43A7,7,0,0,1,292.11,80.61Zm-.33-7.73a2,2,0,0,0-1.56.66,3.26,3.26,0,0,0-.68,1.85h4.23a2.88,2.88,0,0,0-.52-1.86A1.74,1.74,0,0,0,291.78,72.88Z" transform="translate(0 -10.22)"/><path class="cls-9" d="M301.39,80.46l-.24-1.21h-.06a3.45,3.45,0,0,1-1.2,1.08,3.57,3.57,0,0,1-1.51.28A2.58,2.58,0,0,1,296.5,80a2.41,2.41,0,0,1-.69-1.85q0-2.58,3.92-2.7l1.38,0v-.53a2.22,2.22,0,0,0-.41-1.47,1.64,1.64,0,0,0-1.31-.48,5.17,5.17,0,0,0-2.29.65l-.38-1A6.09,6.09,0,0,1,298,72a5.41,5.41,0,0,1,1.43-.19,3,3,0,0,1,2.15.67,2.92,2.92,0,0,1,.69,2.16v5.81Zm-2.76-.91a2.39,2.39,0,0,0,1.79-.66,2.49,2.49,0,0,0,.66-1.85v-.76l-1.23,0a4.39,4.39,0,0,0-2.11.48,1.45,1.45,0,0,0-.64,1.31,1.37,1.37,0,0,0,.4,1.07A1.63,1.63,0,0,0,298.63,79.55Z" transform="translate(0 -10.22)"/><path class="cls-9" d="M307.76,71.8a4.78,4.78,0,0,1,1,.09l-.17,1.2a3.91,3.91,0,0,0-.89-.12,2.13,2.13,0,0,0-1.68.84,3.17,3.17,0,0,0-.69,2.09v4.56h-1.23V72h1l.14,1.58h.06a3.65,3.65,0,0,1,1.09-1.28A2.35,2.35,0,0,1,307.76,71.8Z" transform="translate(0 -10.22)"/><path class="cls-9" d="M314.46,80.46l-.24-1.21h-.06A3.38,3.38,0,0,1,313,80.33a3.49,3.49,0,0,1-1.5.28,2.58,2.58,0,0,1-1.88-.65,2.41,2.41,0,0,1-.69-1.85q0-2.58,3.92-2.7l1.38,0v-.53a2.22,2.22,0,0,0-.41-1.47,1.64,1.64,0,0,0-1.31-.48,5.17,5.17,0,0,0-2.29.65l-.38-1A6.09,6.09,0,0,1,311.1,72a5.41,5.41,0,0,1,1.43-.19,3,3,0,0,1,2.15.67,2.92,2.92,0,0,1,.69,2.16v5.81Zm-2.76-.91a2.39,2.39,0,0,0,1.79-.66,2.49,2.49,0,0,0,.66-1.85v-.76l-1.23,0a4.36,4.36,0,0,0-2.11.48,1.45,1.45,0,0,0-.64,1.31,1.37,1.37,0,0,0,.4,1.07A1.63,1.63,0,0,0,311.7,79.55Zm-.29-8.91c.23-.32.49-.71.76-1.17s.49-.85.65-1.18h1.49v.16a12.19,12.19,0,0,1-1,1.24,12.35,12.35,0,0,1-1.11,1.14h-.82Z" transform="translate(0 -10.22)"/><text y="-10.22"/></svg>